<svg width="436" height="449" viewBox="0 0 436 449" fill="none" xmlns="http://www.w3.org/2000/svg">
<path d="M235.301 7.30521C271.287 25.1722 266.647 78.7182 296.462 104.856C326.357 131.064 379.238 124.793 404.142 155.322C430.794 187.995 440.383 232.824 434.184 273.685C427.817 315.649 404.539 356.188 369.637 382.752C336.141 408.245 289.226 404.97 247.737 415.589C207.83 425.803 166.486 461.905 129.63 444.178C89.969 425.103 96.1513 368.194 73.6542 331.862C58.7642 307.815 34.2776 291.605 20.0453 267.203C3.07224 238.103 -13.8266 208.873 -17.3704 175.801C-21.7569 134.865 -29.8711 87.3547 -2.6648 55.266C24.3898 23.3562 75.6579 24.7374 117.932 16.2172C156.986 8.34616 199.94 -10.2511 235.301 7.30521Z" fill="#337AB7" fill-opacity="0.3"/>
</svg>
