<svg width="378" height="449" viewBox="0 0 378 449" fill="none" xmlns="http://www.w3.org/2000/svg">
<path d="M177.301 7.30521C213.287 25.1722 208.647 78.7182 238.462 104.856C268.357 131.064 321.238 124.793 346.142 155.322C372.794 187.995 382.383 232.824 376.184 273.685C369.817 315.649 346.539 356.188 311.637 382.752C278.141 408.245 231.226 404.97 189.737 415.589C149.83 425.803 108.486 461.905 71.6301 444.178C31.969 425.103 38.1513 368.194 15.6542 331.862C0.764183 307.815 -23.7224 291.605 -37.9547 267.203C-54.9278 238.103 -71.8266 208.873 -75.3704 175.801C-79.7569 134.865 -87.8711 87.3547 -60.6648 55.266C-33.6102 23.3562 17.6579 24.7374 59.9322 16.2172C98.9857 8.34616 141.94 -10.2511 177.301 7.30521Z" fill="white" fill-opacity="0.39"/>
</svg>
