<svg width="80" height="80" viewBox="0 0 80 80" fill="none" xmlns="http://www.w3.org/2000/svg">
<path d="M38.75 7.5H41.25V10H38.75V7.5Z" fill="#9975D0"/>
<path d="M68.3838 12.8662C68.1494 12.6318 67.8314 12.5 67.5 12.5H51.25V10C51.25 9.30969 50.6903 8.75 50 8.75H46.5247L47.4756 3.99536C47.5494 3.62793 47.4542 3.24707 47.2168 2.95776C46.9794 2.66785 46.6248 2.5 46.25 2.5H33.75C33.3752 2.5 33.0206 2.66785 32.7832 2.95776C32.5458 3.24707 32.4506 3.62793 32.5244 3.99536L33.4753 8.75H30C29.3097 8.75 28.75 9.30969 28.75 10V12.5H3.75C3.05969 12.5 2.5 13.0597 2.5 13.75V76.25C2.5 76.9403 3.05969 77.5 3.75 77.5H76.25C76.9403 77.5 77.5 76.9403 77.5 76.25V22.5C77.5 22.1686 77.3682 21.8506 77.1338 21.6162L68.3838 12.8662ZM31.25 11.25H35C35.3748 11.25 35.7294 11.0822 35.9668 10.7922C36.2042 10.5029 36.2994 10.1221 36.2256 9.75464L35.2747 5H44.7254L43.7744 9.75464C43.7006 10.1221 43.7958 10.5029 44.0332 10.7922C44.2706 11.0822 44.6252 11.25 45 11.25H48.75V17.5H31.25V11.25ZM5 75V15H28.75V18.75C28.75 19.4403 29.3097 20 30 20H50C50.6903 20 51.25 19.4403 51.25 18.75V15H66.9824L73.2324 21.25H68.75V17.5H66.25V22.5C66.25 23.1903 66.8097 23.75 67.5 23.75H75V75H5Z" fill="#9975D0"/>
<path d="M68.75 41.25C67.7861 41.25 66.915 41.6257 66.25 42.2253C65.585 41.6257 64.7139 41.25 63.75 41.25C62.7861 41.25 61.915 41.6257 61.25 42.2253C60.585 41.6257 59.7139 41.25 58.75 41.25C58.3096 41.25 57.8929 41.3402 57.5 41.4803V39.1244C60.5168 37.7011 62.5 34.6555 62.5 31.25C62.5 26.4252 58.5748 22.5 53.75 22.5C48.9252 22.5 45 26.4252 45 31.25C45 32.3036 45.2069 33.3163 45.5568 34.2664L23.1549 46.4008C22.829 46.5771 22.5983 46.889 22.525 47.2516C22.4512 47.6147 22.5427 47.992 22.7741 48.2806L31.6541 59.3811L18.3545 63.8141L19.1455 66.1859L34.1455 61.1859C34.5331 61.0565 34.8327 60.7458 34.9487 60.354C35.0647 59.9621 34.9817 59.5386 34.726 59.2194L25.6604 47.887L46.7412 36.4681C47.5803 37.5953 48.6931 38.5078 50 39.1244V48.3119L45.2741 54.2194C45.0964 54.4409 45 54.7162 45 55V62.5C45 62.8314 45.1318 63.1494 45.3662 63.3838L48.75 66.7676V71.25C48.75 71.9403 49.3097 72.5 50 72.5H68.75C69.4403 72.5 70 71.9403 70 71.25V66.7676L72.1338 64.6338C72.3682 64.3994 72.5 64.0814 72.5 63.75V45C72.5 42.9321 70.8179 41.25 68.75 41.25V41.25ZM47.5 31.25C47.5 27.804 50.304 25 53.75 25C57.1961 25 60 27.804 60 31.25C60 33.2556 59.0421 35.0935 57.5 36.2461V32.5C57.5 30.4321 55.8179 28.75 53.75 28.75C51.6821 28.75 50 30.4321 50 32.5V36.2461C48.458 35.0935 47.5 33.2556 47.5 31.25ZM67.5 70H51.25V67.5H67.5V70ZM70 63.2324L68.2324 65H50.5176L47.5 61.9824V55.4382L50 52.3132V56.25H52.5V32.5C52.5 31.8109 53.0609 31.25 53.75 31.25C54.4391 31.25 55 31.8109 55 32.5V45V51.25H57.5V45C57.5 44.3109 58.0609 43.75 58.75 43.75C59.4391 43.75 60 44.3109 60 45V51.25H62.5V45C62.5 44.3109 63.0609 43.75 63.75 43.75C64.4391 43.75 65 44.3109 65 45V51.25H67.5V45C67.5 44.3109 68.0609 43.75 68.75 43.75C69.4391 43.75 70 44.3109 70 45V63.2324Z" fill="#9975D0"/>
<path d="M15.3662 61.6162L12.5 64.4824L9.63378 61.6162L7.86621 63.3838L10.7324 66.25L7.86621 69.1162L9.63378 70.8838L12.5 68.0176L15.3662 70.8838L17.1338 69.1162L14.2676 66.25L17.1338 63.3838L15.3662 61.6162Z" fill="#9975D0"/>
<path d="M12.5004 32.5001H20.0004C20.4337 32.5001 20.8359 32.2755 21.0636 31.9075C21.2913 31.5388 21.312 31.0786 21.1185 30.691L17.3685 23.191C16.945 22.3439 15.5558 22.3439 15.1322 23.191L11.3822 30.691C11.1887 31.0786 11.2095 31.5388 11.4372 31.9075C11.6648 32.2755 12.067 32.5001 12.5004 32.5001ZM16.2504 26.5449L17.9777 30.0001H14.5231L16.2504 26.5449Z" fill="#9975D0"/>
<path d="M26.2504 36.2501H33.7504C34.1837 36.2501 34.586 36.0255 34.8136 35.6575C35.0413 35.2888 35.062 34.8286 34.8686 34.441L31.1186 26.941C30.695 26.0939 29.3058 26.0939 28.8822 26.941L25.1322 34.441C24.9387 34.8286 24.9595 35.2888 25.1872 35.6575C25.4148 36.0255 25.817 36.2501 26.2504 36.2501ZM30.0004 30.2949L31.7277 33.7501H28.2731L30.0004 30.2949Z" fill="#9975D0"/>
<path d="M13.6181 43.191C13.1945 42.3439 11.8053 42.3439 11.3817 43.191L7.63174 50.691C7.43825 51.0786 7.45901 51.5388 7.68667 51.9075C7.91432 52.2755 8.31655 52.5001 8.7499 52.5001H16.2499C16.6833 52.5001 17.0855 52.2755 17.3131 51.9075C17.5408 51.5388 17.5616 51.0786 17.3681 50.691L13.6181 43.191ZM10.7726 50.0001L12.4999 46.5449L14.2272 50.0001H10.7726Z" fill="#9975D0"/>
<path d="M38.6181 63.191C38.1945 62.3439 36.8053 62.3439 36.3817 63.191L32.6317 70.691C32.4383 71.0786 32.459 71.5388 32.6867 71.9075C32.9143 72.2755 33.3166 72.5001 33.7499 72.5001H41.2499C41.6833 72.5001 42.0855 72.2755 42.3131 71.9075C42.5408 71.5388 42.5616 71.0786 42.3681 70.691L38.6181 63.191ZM35.7726 70.0001L37.4999 66.5449L39.2272 70.0001H35.7726Z" fill="#9975D0"/>
</svg>
