<svg width="80" height="80" viewBox="0 0 80 80" fill="none" xmlns="http://www.w3.org/2000/svg">
<path d="M77.0114 69.8139C76.0349 66.5623 73.3543 64.1653 70.0141 63.5583L61.5938 62.0262V61.3615C64.7427 59.5329 67.0487 56.4134 67.7672 52.7255C70.1001 52.243 71.8594 50.1732 71.8594 47.6992V35.025C71.8594 31.4436 69.5137 28.3203 66.1106 27.304L65.469 26.6624C62.4843 23.6777 58.5166 22.0352 54.2962 22.0352C45.5845 22.0352 38.4961 29.1223 38.4961 37.8352V47.6992C38.4961 50.1732 40.2554 52.243 42.5882 52.7255C43.3081 56.4134 45.6127 59.5342 48.7617 61.3615V62.0262L40.3414 63.557C37.0012 64.1653 34.3206 66.5623 33.344 69.8139L30.3555 79.7793H80L77.0114 69.8139ZM68.0098 49.9089V45.4895C68.7733 45.9348 69.293 46.7535 69.293 47.6992C69.293 48.6449 68.7733 49.4636 68.0098 49.9089ZM42.3457 49.9089C41.5822 49.4636 41.0625 48.6449 41.0625 47.6992C41.0625 46.7535 41.5822 45.9348 42.3457 45.4895V49.9089ZM42.3457 41.2832V42.7486C41.8889 42.868 41.4603 43.0476 41.0625 43.2799V37.8352C41.0625 30.5389 46.9986 24.6016 54.2962 24.6016C57.8301 24.6016 61.1549 25.9784 63.6546 28.4781L64.7864 29.6112L65.1315 29.6959C67.5825 30.308 69.293 32.4997 69.293 35.025V43.2799C68.8952 43.0476 68.4666 42.8667 68.0098 42.7486V41.2832H63.9407C60.4633 41.2832 57.1398 39.6227 55.0546 36.842L54.0344 35.4793L51.4847 38.0303C49.3854 40.1283 46.5957 41.2832 43.6289 41.2832H42.3457V41.2832ZM44.9121 50.2656V43.7906C48.0803 43.4967 51.0202 42.1224 53.2991 39.8447L53.7983 39.3456C56.3711 42.1853 60.077 43.8496 63.9407 43.8496H65.4434V50.2656C65.4434 55.9258 60.838 60.5312 55.1777 60.5312C49.5175 60.5312 44.9121 55.9258 44.9121 50.2656ZM51.4372 62.5382C52.6216 62.9 53.8766 63.0976 55.1777 63.0976C56.4789 63.0976 57.7339 62.9 58.9183 62.5382L55.1777 65.3432L51.4372 62.5382ZM53.2247 67.0858L50.6057 69.7036L48.9067 64.608L49.7241 64.4604L53.2247 67.0858ZM60.6314 64.4604L61.4475 64.6093L59.7485 69.7049L57.1295 67.0871L60.6314 64.4604ZM33.8047 77.2129L35.8039 70.5518C36.5007 68.2292 38.4153 66.5161 40.802 66.0837L46.3583 65.0738L49.4855 74.4566L55.1777 68.7617L60.8713 74.4553L63.9985 65.0725L69.5547 66.0824C71.9402 66.5161 73.856 68.2292 74.5528 70.5505L76.5508 77.2129H33.8047Z" fill="#337AB7"/>
<path d="M33.3633 20.9688V12.8359L29.8807 11.9081C29.778 11.6399 29.6664 11.3717 29.5445 11.1035L31.3525 7.98023L25.6037 2.23148L22.4804 4.03952C22.2135 3.91761 21.9453 3.80597 21.6784 3.70332L20.7468 0.220703H12.6165L11.6861 3.7046C11.4179 3.80726 11.151 3.91889 10.8841 4.0408L7.76081 2.23148L2.01206 7.98023L3.82009 11.1035C3.69691 11.3717 3.58527 11.6399 3.48261 11.9081L0 12.8359V20.9688L3.48261 21.8966C3.58527 22.1648 3.69691 22.4329 3.82009 22.7011L2.01206 25.8244L7.76081 31.5732L10.8841 29.7652C11.151 29.8871 11.4192 29.9987 11.6861 30.1014L12.6165 33.584H20.7468L21.6771 30.1001C21.9453 29.9974 22.2122 29.8858 22.4791 29.7639L25.6025 31.5719L31.3512 25.8232L29.5432 22.6999C29.6651 22.4317 29.778 22.1635 29.8794 21.8953L33.3633 20.9688ZM28.1432 25.4023L25.1816 28.3652L22.5703 26.8523L21.9466 27.1718C21.3743 27.4657 20.7917 27.7095 20.2169 27.8955L19.5509 28.1098L18.7758 31.0176H14.5875L13.8124 28.1098L13.1464 27.8955C12.5715 27.7082 11.989 27.4657 11.4167 27.1718L10.793 26.8523L8.1817 28.3652L5.22007 25.4023L6.73168 22.7922L6.41217 22.1686C6.11575 21.5924 5.87322 21.0099 5.68972 20.4388L5.47543 19.7716L2.56641 18.9965V14.8082L5.47543 14.0331L5.68972 13.3658C5.87322 12.7961 6.11575 12.2135 6.41217 11.6361L6.73168 11.0124L5.22007 8.4024L8.1817 5.43949L10.793 6.95239L11.4167 6.63287C11.989 6.33901 12.5715 6.09521 13.1464 5.90914L13.8124 5.69485L14.5875 2.78711H18.7758L19.5509 5.69485L20.2169 5.90914C20.7917 6.09649 21.3743 6.33901 21.9466 6.63287L22.5703 6.95239L25.1816 5.43949L28.1432 8.4024L26.6316 11.0124L26.9511 11.6361C27.2475 12.2122 27.4901 12.7948 27.6736 13.3658L27.8878 14.0331L30.7969 14.8082V18.9965L27.8878 19.7716L27.6736 20.4388C27.4901 21.0086 27.2475 21.5912 26.9511 22.1686L26.6316 22.7922L28.1432 25.4023Z" fill="#337AB7"/>
<path d="M23.8907 22.2623C25.0507 20.7045 25.6641 18.8515 25.6641 16.9023C25.6641 11.9505 21.6348 7.91992 16.6816 7.91992C11.7285 7.91992 7.69922 11.9505 7.69922 16.9023C7.69922 21.8542 11.7285 25.8848 16.6816 25.8848C18.6834 25.8848 20.5762 25.2419 22.1571 24.0241L20.5916 21.9915C19.4623 22.8603 18.1111 23.3184 16.6816 23.3184C13.1438 23.3184 10.2656 20.4401 10.2656 16.9023C10.2656 13.3646 13.1438 10.4863 16.6816 10.4863C20.2194 10.4863 23.0977 13.3646 23.0977 16.9023C23.0977 18.2946 22.6601 19.6176 21.8324 20.7289L23.8907 22.2623Z" fill="#337AB7"/>
<path d="M77.3682 15.9951L75.709 17.6543V13.0527C75.709 5.97715 69.9525 0.220703 62.8769 0.220703H55.1777V2.78711H62.8769C68.5372 2.78711 73.1426 7.39252 73.1426 13.0527V17.6543L71.4834 15.9951L69.6689 17.8096L74.4258 22.5664L79.1826 17.8096L77.3682 15.9951Z" fill="#337AB7"/>
<path d="M6.41601 66.9473V62.3457L8.07519 64.0049L9.88964 62.1904L5.13281 57.4336L0.375977 62.1904L2.19043 64.0049L3.84961 62.3457V66.9473C3.84961 74.0228 9.60605 79.7793 16.6816 79.7793V77.2129C11.0214 77.2129 6.41601 72.6075 6.41601 66.9473Z" fill="#337AB7"/>
<path d="M33.3633 38.7168H0V41.2832H33.3633V38.7168Z" fill="#337AB7"/>
<path d="M33.3633 48.9824H0V51.5488H33.3633V48.9824Z" fill="#337AB7"/>
<path d="M15.3984 43.8496H0V46.416H15.3984V43.8496Z" fill="#337AB7"/>
<path d="M25.3433 43.8496H19.248H17.9648V46.416H19.248H25.3433H33.3633V43.8496H25.3433Z" fill="#337AB7"/>
<path d="M52.6113 0.220703H50.0449V2.78711H52.6113V0.220703Z" fill="#337AB7"/>
<path d="M47.4785 0.220703H44.9121V2.78711H47.4785V0.220703Z" fill="#337AB7"/>
<path d="M21.8145 77.2129H19.248V79.7793H21.8145V77.2129Z" fill="#337AB7"/>
<path d="M26.9473 77.2129H24.3809V79.7793H26.9473V77.2129Z" fill="#337AB7"/>
</svg>
