<svg width="70" height="70" viewBox="0 0 70 70" fill="none" xmlns="http://www.w3.org/2000/svg">
<g clip-path="url(#clip0)">
<path d="M35 31.5003C34.8297 31.5003 34.6605 31.463 34.503 31.3895L14.6697 22.0561C14.2613 21.8636 14 21.4518 14 21.0003C14 20.5488 14.2613 20.137 14.6697 19.9445L34.503 10.6111C34.818 10.463 35.182 10.463 35.497 10.6111L55.3303 19.9445C55.7387 20.137 56 20.5488 56 21.0003C56 21.4518 55.7387 21.8636 55.3303 22.0561L35.497 31.3895C35.3395 31.463 35.1703 31.5003 35 31.5003V31.5003ZM17.9072 21.0003L35 29.0445L52.0928 21.0003L35 12.9561L17.9072 21.0003Z" fill="#64660D"/>
<path d="M34.9997 40.8328C34.8212 40.8328 34.6415 40.7919 34.4782 40.7103L20.4782 33.7103C20.0827 33.5119 19.833 33.1083 19.833 32.6661V23.7446C19.833 23.3456 20.0372 22.9734 20.3743 22.7599C20.7115 22.5453 21.135 22.5208 21.4955 22.6888L34.9997 29.0436L48.5027 22.6888C48.8643 22.5196 49.2878 22.5453 49.6238 22.7599C49.9622 22.9734 50.1663 23.3456 50.1663 23.7446V32.6661C50.1663 33.1083 49.9167 33.5119 49.5212 33.7103L35.5212 40.7103C35.3578 40.7919 35.1782 40.8328 34.9997 40.8328V40.8328ZM22.1663 31.9451L34.9997 38.3618L47.833 31.9451V25.5833L35.4967 31.3886C35.1817 31.5368 34.8177 31.5368 34.5027 31.3886L22.1663 25.5833V31.9451Z" fill="#64660D"/>
<path d="M54.8335 22.1663H35.0002C34.3562 22.1663 33.8335 21.6437 33.8335 20.9997C33.8335 20.3557 34.3562 19.833 35.0002 19.833H54.8335C55.4775 19.833 56.0002 20.3557 56.0002 20.9997C56.0002 21.6437 55.4775 22.1663 54.8335 22.1663Z" fill="#64660D"/>
<path d="M54.8332 32.6663C54.1892 32.6663 53.6665 32.1437 53.6665 31.4997V20.9997C53.6665 20.3557 54.1892 19.833 54.8332 19.833C55.4772 19.833 55.9998 20.3557 55.9998 20.9997V31.4997C55.9998 32.1437 55.4772 32.6663 54.8332 32.6663Z" fill="#64660D"/>
<path d="M35.0002 24.5C34.3562 24.5 33.8335 23.9773 33.8335 23.3333V18.6667C33.8335 18.0227 34.3562 17.5 35.0002 17.5C35.6442 17.5 36.1668 18.0227 36.1668 18.6667V23.3333C36.1668 23.9773 35.6442 24.5 35.0002 24.5Z" fill="#64660D"/>
<path d="M52.4988 36.1665C52.2772 36.1665 52.052 36.1035 51.8525 35.9705C51.317 35.6135 51.1723 34.889 51.5293 34.3524L53.8627 30.8524C54.2197 30.3157 54.943 30.1699 55.4808 30.5292C56.0163 30.8862 56.161 31.6107 55.804 32.1474L53.4707 35.6474C53.2455 35.9845 52.8757 36.1665 52.4988 36.1665Z" fill="#64660D"/>
<path d="M57.168 36.1665C56.7912 36.1665 56.4213 35.9845 56.1962 35.6474L53.8628 32.1474C53.5058 31.6119 53.6505 30.8862 54.186 30.5292C54.7215 30.1699 55.446 30.3157 55.8042 30.8524L58.1375 34.3524C58.4945 34.8879 58.3498 35.6135 57.8143 35.9705C57.6148 36.1035 57.3897 36.1665 57.168 36.1665Z" fill="#64660D"/>
<path d="M35.0002 35.0003C34.3562 35.0003 33.8335 34.4777 33.8335 33.8337V30.3337C33.8335 29.6897 34.3562 29.167 35.0002 29.167C35.6442 29.167 36.1668 29.6897 36.1668 30.3337V33.8337C36.1668 34.4777 35.6442 35.0003 35.0002 35.0003Z" fill="#64660D"/>
<path d="M68.8333 45.5003H1.16667C0.522667 45.5003 0 44.9777 0 44.3337V5.83483C0 3.26116 2.09417 1.16699 4.66783 1.16699H65.3322C67.9058 1.16699 70 3.26116 70 5.83483V44.3337C70 44.9777 69.4773 45.5003 68.8333 45.5003V45.5003ZM2.33333 43.167H67.6667V5.83483C67.6667 4.54683 66.6202 3.50033 65.3322 3.50033H4.66783C3.37983 3.50033 2.33333 4.54683 2.33333 5.83483V43.167Z" fill="#64660D"/>
<path d="M65.3322 54.8337H4.66783C2.09417 54.8337 0 52.7395 0 50.1658V44.3337C0 43.6897 0.522667 43.167 1.16667 43.167H68.8333C69.4773 43.167 70 43.6897 70 44.3337V50.1658C70 52.7395 67.9058 54.8337 65.3322 54.8337V54.8337ZM2.33333 45.5003V50.1658C2.33333 51.4538 3.37983 52.5003 4.66783 52.5003H65.3322C66.6202 52.5003 67.6667 51.4538 67.6667 50.1658V45.5003H2.33333Z" fill="#64660D"/>
<path d="M38.5002 50.1673H31.5002C30.8562 50.1673 30.3335 49.6446 30.3335 49.0006C30.3335 48.3566 30.8562 47.834 31.5002 47.834H38.5002C39.1442 47.834 39.6668 48.3566 39.6668 49.0006C39.6668 49.6446 39.1442 50.1673 38.5002 50.1673Z" fill="#64660D"/>
<path d="M64.1665 45.4997H5.83317C5.18917 45.4997 4.6665 44.977 4.6665 44.333V6.99967C4.6665 6.35567 5.18917 5.83301 5.83317 5.83301H64.1665C64.8105 5.83301 65.3332 6.35567 65.3332 6.99967V44.333C65.3332 44.977 64.8105 45.4997 64.1665 45.4997ZM6.99984 43.1663H62.9998V8.16634H6.99984V43.1663Z" fill="#64660D"/>
<path d="M50.1668 68.833H19.8335C17.9038 68.833 16.3335 67.2627 16.3335 65.333C16.3335 63.4033 17.9038 61.833 19.8335 61.833H50.1668C52.0965 61.833 53.6668 63.4033 53.6668 65.333C53.6668 67.2627 52.0965 68.833 50.1668 68.833ZM19.8335 64.1663C19.1907 64.1663 18.6668 64.6902 18.6668 65.333C18.6668 65.9758 19.1907 66.4997 19.8335 66.4997H50.1668C50.8097 66.4997 51.3335 65.9758 51.3335 65.333C51.3335 64.6902 50.8097 64.1663 50.1668 64.1663H19.8335Z" fill="#64660D"/>
<path d="M47.8333 64.1667H22.1667C21.5227 64.1667 21 63.644 21 63C21 62.356 21.5227 61.8333 22.1667 61.8333C26.0377 61.8333 28 59.0858 28 53.6667C28 53.0227 28.5227 52.5 29.1667 52.5H40.8333C41.4773 52.5 42 53.0227 42 53.6667C42 59.0858 43.9623 61.8333 47.8333 61.8333C48.4773 61.8333 49 62.356 49 63C49 63.644 48.4773 64.1667 47.8333 64.1667ZM27.8495 61.8333H42.1517C40.7143 60.242 39.8685 57.8725 39.6993 54.8333H30.3018C30.1315 57.8725 29.2868 60.242 27.8495 61.8333Z" fill="#64660D"/>
</g>
<defs>
<clipPath id="clip0">
<rect width="70" height="70" fill="white"/>
</clipPath>
</defs>
</svg>
