<svg width="350" height="335" viewBox="0 0 350 335" fill="none" xmlns="http://www.w3.org/2000/svg">
<g clip-path="url(#clip0)">
<path d="M11.4493 207.11C11.395 207.046 11.3565 206.97 11.3369 206.889C4.02867 176.703 5.25737 145.08 14.8857 115.552C24.514 86.0242 42.1627 59.7549 65.86 39.6791C89.5573 19.6034 118.37 6.51183 149.079 1.86716C179.787 -2.77752 211.183 1.20761 239.757 13.3773C239.822 13.4048 239.88 13.4446 239.929 13.4947C239.978 13.5447 240.017 13.604 240.043 13.669C240.07 13.7341 240.083 13.8036 240.082 13.8738C240.081 13.9439 240.067 14.0132 240.04 14.0777C240.012 14.1423 239.972 14.2008 239.922 14.2499C239.872 14.299 239.813 14.3378 239.748 14.3641C239.683 14.3903 239.613 14.4035 239.543 14.4028C239.473 14.4022 239.404 14.3877 239.339 14.3603C180.878 -10.4983 114.541 -0.367353 66.2155 40.7996C18.1845 81.7153 -2.44568 145.261 12.3755 206.638C12.4038 206.755 12.3918 206.878 12.3415 206.987C12.2913 207.096 12.2057 207.185 12.0986 207.24C11.9915 207.294 11.8692 207.311 11.7514 207.287C11.6335 207.264 11.5271 207.201 11.4493 207.11Z" fill="#E6E6E6"/>
<path d="M109.087 321.728C109.008 321.637 108.963 321.521 108.959 321.401C108.954 321.281 108.99 321.163 109.061 321.066C109.132 320.969 109.234 320.899 109.35 320.866C109.465 320.834 109.589 320.842 109.699 320.889C167.94 345.28 233.958 335.014 281.99 294.098C330.771 252.543 351.486 188.667 336.052 127.396C336.034 127.328 336.031 127.257 336.041 127.188C336.051 127.119 336.075 127.052 336.111 126.992C336.147 126.931 336.195 126.879 336.251 126.837C336.307 126.795 336.371 126.765 336.439 126.748C336.507 126.731 336.578 126.727 336.648 126.737C336.717 126.748 336.784 126.771 336.844 126.807C336.904 126.843 336.957 126.891 336.998 126.947C337.04 127.004 337.071 127.068 337.088 127.136C344.578 156.909 343.628 188.18 334.345 217.444C324.734 247.602 306.831 274.447 282.683 294.911C259.104 315.007 230.412 328.167 199.8 332.927C169.187 337.687 137.854 333.861 109.286 321.874C109.209 321.842 109.141 321.792 109.087 321.728Z" fill="#E6E6E6"/>
<path d="M96.7429 331.208C96.6974 331.155 96.6628 331.093 96.6412 331.026C96.6196 330.96 96.6113 330.889 96.6169 330.819C96.6225 330.749 96.6419 330.681 96.6738 330.619C96.7057 330.556 96.7497 330.501 96.8031 330.455L349.119 115.517C349.227 115.425 349.367 115.38 349.508 115.391C349.65 115.403 349.78 115.47 349.872 115.577C349.964 115.685 350.009 115.825 349.998 115.966C349.987 116.108 349.92 116.238 349.812 116.33L97.4958 331.269C97.4424 331.314 97.3806 331.349 97.3139 331.37C97.2471 331.392 97.1768 331.4 97.1069 331.395C97.0369 331.389 96.9688 331.37 96.9064 331.338C96.8439 331.306 96.7883 331.262 96.7429 331.208Z" fill="#E6E6E6"/>
<path d="M0.127576 217.791C0.0820763 217.738 0.0475464 217.676 0.025948 217.609C0.00434957 217.543 -0.00389356 217.472 0.00169984 217.402C0.00729323 217.333 0.0266101 217.264 0.0585432 217.202C0.0904764 217.139 0.134403 217.084 0.187811 217.038L252.504 2.1002C252.612 2.00851 252.752 1.96339 252.893 1.97475C253.034 1.98611 253.165 2.05302 253.257 2.16078C253.348 2.26854 253.394 2.40834 253.382 2.54945C253.371 2.69057 253.305 2.82146 253.197 2.91336L0.880513 217.852C0.827128 217.897 0.765301 217.932 0.698565 217.953C0.631828 217.975 0.561489 217.983 0.491568 217.978C0.421646 217.972 0.353517 217.953 0.291062 217.921C0.228607 217.889 0.173049 217.845 0.127576 217.791Z" fill="#E6E6E6"/>
<path d="M96.7429 331.208C96.6974 331.155 96.6628 331.093 96.6412 331.026C96.6196 330.96 96.6113 330.889 96.6169 330.819C96.6225 330.749 96.6419 330.681 96.6738 330.619C96.7057 330.556 96.7497 330.501 96.8031 330.455L349.119 115.517C349.227 115.425 349.367 115.38 349.508 115.391C349.65 115.403 349.78 115.47 349.872 115.577C349.964 115.685 350.009 115.825 349.998 115.966C349.987 116.108 349.92 116.238 349.812 116.33L97.4958 331.269C97.4424 331.314 97.3806 331.349 97.3139 331.37C97.2471 331.392 97.1768 331.4 97.1069 331.395C97.0369 331.389 96.9688 331.37 96.9064 331.338C96.8439 331.306 96.7883 331.262 96.7429 331.208Z" fill="#E6E6E6"/>
<path d="M294.995 88.59H197.341V88.0787C197.341 87.6805 197.183 87.2986 196.901 87.017C196.62 86.7355 196.238 86.5773 195.84 86.5773H154.562C154.164 86.5773 153.782 86.7355 153.501 87.017C153.219 87.2986 153.061 87.6805 153.061 88.0787V88.59H55.004C53.2521 88.59 51.572 89.286 50.3332 90.5247C49.0944 91.7635 48.3984 93.4437 48.3984 95.1956V228.914C48.3984 230.666 49.0944 232.346 50.3332 233.585C51.572 234.824 53.2521 235.52 55.004 235.52H294.995C296.747 235.52 298.427 234.824 299.666 233.585C300.905 232.346 301.601 230.666 301.601 228.914V95.1956C301.601 93.4437 300.905 91.7635 299.666 90.5247C298.428 89.286 296.747 88.59 294.995 88.59Z" fill="#3F3D56"/>
<path d="M60.2572 102.648C60.0933 102.649 59.9362 102.714 59.8204 102.83C59.7045 102.946 59.6393 103.103 59.6392 103.267V230.102C59.6393 230.266 59.7045 230.423 59.8204 230.539C59.9362 230.655 60.0933 230.72 60.2572 230.72H289.742C289.906 230.72 290.063 230.655 290.179 230.539C290.295 230.423 290.36 230.266 290.36 230.102V103.267C290.36 103.103 290.295 102.946 290.179 102.83C290.063 102.714 289.906 102.649 289.742 102.648H60.2572Z" fill="#337AB7"/>
<path d="M174.799 96.641C176.132 96.641 177.214 95.5596 177.214 94.2257C177.214 92.8918 176.132 91.8104 174.799 91.8104C173.465 91.8104 172.383 92.8918 172.383 94.2257C172.383 95.5596 173.465 96.641 174.799 96.641Z" fill="#337AB7"/>
<path d="M305.999 226.508H283.017V224.134C283.017 224.004 282.87 223.898 282.689 223.898H274.809C274.628 223.898 274.481 224.004 274.481 224.134V226.508H269.556V224.134C269.556 224.004 269.409 223.898 269.228 223.898H261.348C261.167 223.898 261.02 224.004 261.02 224.134V226.508H256.095V224.134C256.095 224.004 255.948 223.898 255.767 223.898H247.887C247.706 223.898 247.559 224.004 247.559 224.134V226.508H242.634V224.134C242.634 224.004 242.487 223.898 242.305 223.898H234.426C234.244 223.898 234.097 224.004 234.097 224.134V226.508H229.173V224.134C229.173 224.004 229.026 223.898 228.844 223.898H220.965C220.783 223.898 220.636 224.004 220.636 224.134V226.508H215.712V224.134C215.712 224.004 215.565 223.898 215.383 223.898H207.504C207.322 223.898 207.175 224.004 207.175 224.134V226.508H202.251V224.134C202.251 224.004 202.104 223.898 201.922 223.898H140.198C140.017 223.898 139.87 224.004 139.87 224.134V226.508H134.945V224.134C134.945 224.004 134.798 223.898 134.617 223.898H126.737C126.556 223.898 126.409 224.004 126.409 224.134V226.508H121.484V224.134C121.484 224.004 121.337 223.898 121.156 223.898H113.276C113.095 223.898 112.948 224.004 112.948 224.134V226.508H108.023V224.134C108.023 224.004 107.876 223.898 107.695 223.898H99.815C99.6337 223.898 99.4867 224.004 99.4867 224.134V226.508H94.5619V224.134C94.5619 224.004 94.4149 223.898 94.2336 223.898H86.3539C86.1726 223.898 86.0256 224.004 86.0256 224.134V226.508H81.1008V224.134C81.1008 224.004 80.9538 223.898 80.7725 223.898H72.8928C72.7115 223.898 72.5645 224.004 72.5645 224.134V226.508H67.6397V224.134C67.6397 224.004 67.4927 223.898 67.3114 223.898H59.4317C59.2504 223.898 59.1034 224.004 59.1034 224.134V226.508H44.0007C39.6489 226.508 36.1211 229.044 36.1211 232.172V234.733C36.1211 237.862 39.6489 240.398 44.0007 240.398H305.999C310.351 240.398 313.879 237.862 313.879 234.733V232.172C313.879 229.044 310.351 226.508 305.999 226.508Z" fill="#3F3D56"/>
<path d="M148.282 156.01H80.4511C80.3094 156.01 80.1736 155.954 80.0734 155.854C79.9733 155.754 79.917 155.618 79.917 155.476C79.917 155.334 79.9733 155.199 80.0734 155.098C80.1736 154.998 80.3094 154.942 80.4511 154.942H148.282C148.423 154.942 148.559 154.998 148.659 155.098C148.759 155.199 148.816 155.334 148.816 155.476C148.816 155.618 148.759 155.754 148.659 155.854C148.559 155.954 148.423 156.01 148.282 156.01Z" fill="#F2F2F2"/>
<path d="M148.282 167.76H80.4511C80.3094 167.76 80.1736 167.704 80.0734 167.604C79.9733 167.504 79.917 167.368 79.917 167.226C79.917 167.085 79.9733 166.949 80.0734 166.849C80.1736 166.748 80.3094 166.692 80.4511 166.692H148.282C148.423 166.692 148.559 166.748 148.659 166.849C148.759 166.949 148.816 167.085 148.816 167.226C148.816 167.368 148.759 167.504 148.659 167.604C148.559 167.704 148.423 167.76 148.282 167.76Z" fill="#F2F2F2"/>
<path d="M148.281 179.511H80.4507C80.3805 179.511 80.3108 179.497 80.2459 179.47C80.1809 179.444 80.1218 179.404 80.072 179.355C80.0223 179.305 79.9828 179.246 79.9559 179.181C79.9289 179.116 79.915 179.047 79.915 178.976C79.915 178.906 79.9289 178.837 79.9559 178.772C79.9828 178.707 80.0223 178.648 80.072 178.598C80.1218 178.549 80.1809 178.509 80.2459 178.483C80.3108 178.456 80.3805 178.442 80.4507 178.442H148.281C148.352 178.442 148.421 178.456 148.486 178.483C148.551 178.509 148.61 178.549 148.66 178.598C148.71 178.648 148.749 178.707 148.776 178.772C148.803 178.837 148.817 178.906 148.817 178.976C148.817 179.047 148.803 179.116 148.776 179.181C148.749 179.246 148.71 179.305 148.66 179.355C148.61 179.404 148.551 179.444 148.486 179.47C148.421 179.497 148.352 179.511 148.281 179.511Z" fill="#F2F2F2"/>
<path d="M263.38 125.299H179.526C178.641 125.299 177.924 126.017 177.924 126.902V207.551C177.924 208.436 178.641 209.153 179.526 209.153H263.38C264.265 209.153 264.982 208.436 264.982 207.551V126.902C264.982 126.017 264.265 125.299 263.38 125.299Z" fill="white"/>
<path d="M195.357 169.677C195.644 164.599 197.726 159.787 201.231 156.1C204.736 152.413 209.436 150.091 214.494 149.548C219.552 149.004 224.638 150.275 228.846 153.132C233.055 155.99 236.111 160.25 237.471 165.152C237.731 165.143 237.991 165.132 238.253 165.132C239.148 165.141 240.036 165.292 240.883 165.58C251.56 169.086 248.749 185.026 237.511 185.026H209.892C207.939 185.032 206.005 184.643 204.205 183.884C202.406 183.124 200.778 182.009 199.419 180.605C198.061 179.202 196.999 177.539 196.299 175.715C195.598 173.892 195.273 171.946 195.342 169.994C195.346 169.889 195.351 169.783 195.357 169.677Z" fill="#337AB7"/>
<path d="M220.53 169.343V160.558H215.8V169.343H212.023L215.094 174.663L218.165 179.982L221.236 174.663L224.307 169.343H220.53Z" fill="white"/>
</g>
<defs>
<clipPath id="clip0">
<rect width="350" height="334.897" fill="white"/>
</clipPath>
</defs>
</svg>
