<svg id="Capa_1" enable-background="new 0 0 512 512" height="512" viewBox="0 0 512 512" width="512" xmlns="http://www.w3.org/2000/svg"><g><g><g><g><path d="m60.916 512c-2.616 0-4.807-2.044-4.988-4.653l-14-201.296c-.096-1.378.39-2.747 1.331-3.757.942-1.01 2.275-1.589 3.656-1.589h71.433c1.381 0 2.714.579 3.656 1.589.942 1.011 1.428 2.38 1.332 3.758l-14 201.296c-.181 2.609-2.372 4.653-4.988 4.653h-43.432z" fill="#ece6f2"/><path d="m122.004 302.293c-.942-1.01-2.274-1.589-3.656-1.589h-35.716v211.296h21.716c2.616 0 4.807-2.044 4.988-4.653l14-201.296c.096-1.379-.39-2.748-1.332-3.758z" fill="#cfd0e5"/></g><g><path d="m32.118 320.7c-2.757 0-5-2.243-5-5v-160.549c0-17.081 13.896-30.977 30.977-30.977h49.075c17.081 0 30.977 13.897 30.977 30.977v160.549c0 2.757-2.243 5-5 5z" fill="#414c7f"/><path d="m107.17 124.174h-24.538v196.526h50.514c2.757 0 5-2.243 5-5v-160.549c.001-17.08-13.896-30.977-30.976-30.977z" fill="#293565"/></g></g><g><path d="m82.632 131.749c-1.907 0-3.675-1.11-4.503-2.828l-58.745-121.748c-.752-1.559-.652-3.365.269-4.832.92-1.465 2.503-2.341 4.234-2.341h117.49c1.731 0 3.314.876 4.235 2.342.92 1.465 1.02 3.272.268 4.831l-58.745 121.749c-.828 1.717-2.596 2.827-4.503 2.827z" fill="#fee570"/><path d="m145.613 2.342c-.921-1.466-2.505-2.342-4.236-2.342h-58.745v131.749c1.907 0 3.675-1.11 4.503-2.827l58.746-121.749c.752-1.559.651-3.365-.268-4.831z" fill="#fecb6e"/></g></g><g><g><g><path d="m231.786 512c-2.616 0-4.808-2.044-4.988-4.655l-14-202.136c-.095-1.378.39-2.747 1.332-3.756.942-1.01 2.275-1.589 3.656-1.589h71.433c1.381 0 2.713.579 3.655 1.589.943 1.01 1.428 2.379 1.333 3.757l-14 202.136c-.181 2.61-2.372 4.654-4.988 4.654z" fill="#ece6f2"/><path d="m292.874 301.452c-.942-1.01-2.274-1.589-3.655-1.589h-35.652v212.137h21.652c2.616 0 4.808-2.044 4.988-4.654l14-202.136c.095-1.378-.39-2.748-1.333-3.758z" fill="#cfd0e5"/></g><g><path d="m202.988 319.863c-2.757 0-5-2.243-5-5v-161.168c0-17.081 13.896-30.977 30.977-30.977h49.074c17.081 0 30.977 13.896 30.977 30.977v161.169c0 2.757-2.243 5-5 5h-101.028z" fill="#414c7f"/><path d="m278.04 122.718h-24.473v197.145h50.45c2.757 0 5-2.243 5-5v-161.168c0-17.081-13.897-30.977-30.977-30.977z" fill="#293565"/></g></g><g><ellipse cx="253.503" cy="61.357" fill="#ffa1d1" rx="61.124" ry="61.357"/><path d="m253.567.002v122.711c33.674-.035 61.06-27.545 61.06-61.356s-27.386-61.32-61.06-61.355z" fill="#ff7cb8"/></g></g><g><g><g><path d="m402.042 512c-2.616 0-4.807-2.044-4.988-4.653l-14-201.296c-.096-1.378.389-2.747 1.331-3.756.943-1.011 2.275-1.59 3.657-1.59h71.432c1.381 0 2.714.579 3.656 1.589.942 1.011 1.428 2.38 1.332 3.758l-14 201.296c-.181 2.609-2.372 4.653-4.988 4.653h-43.432z" fill="#ece6f2"/><path d="m463.13 302.293c-.942-1.01-2.275-1.589-3.656-1.589h-35.716v211.296h21.716c2.616 0 4.807-2.044 4.988-4.653l14-201.296c.096-1.379-.39-2.748-1.332-3.758z" fill="#cfd0e5"/></g><g><path d="m373.243 320.7c-2.757 0-5-2.243-5-5v-160.549c0-17.081 13.896-30.977 30.977-30.977h49.075c17.081 0 30.977 13.897 30.977 30.977v160.549c0 2.757-2.243 5-5 5z" fill="#414c7f"/><path d="m448.295 124.174h-24.537v196.526h50.514c2.757 0 5-2.243 5-5v-160.549c0-17.08-13.896-30.977-30.977-30.977z" fill="#293565"/></g></g><g><path d="m391.797 123.761c-1.956 0-3.77-1.057-4.734-2.759l-31.961-56.44c-.937-1.654-.937-3.708 0-5.362l31.961-56.44c.964-1.702 2.778-2.76 4.734-2.76h63.922c1.956 0 3.77 1.057 4.734 2.759l31.961 56.44c.937 1.654.937 3.708 0 5.362l-31.961 56.44c-.964 1.702-2.778 2.76-4.734 2.76z" fill="#3de5aa"/><path d="m492.414 59.199-31.961-56.44c-.964-1.702-2.778-2.759-4.734-2.759h-31.961v123.761h31.961c1.956 0 3.77-1.057 4.734-2.76l31.961-56.44c.937-1.654.937-3.708 0-5.362z" fill="#30b3b2"/></g></g></g></svg>