<svg width="80" height="80" viewBox="0 0 80 80" fill="none" xmlns="http://www.w3.org/2000/svg">
<path d="M69.6924 64.5924C71.4012 63.2162 72.4999 61.1099 72.4999 58.7499C72.4999 54.6137 69.1362 51.2499 64.9999 51.2499C60.8637 51.2499 57.4999 54.6137 57.4999 58.7499C57.4999 61.1099 58.5987 63.2162 60.3074 64.5924C57.6399 65.5649 55.3562 67.3337 53.7499 69.6199V68.7499C53.7499 62.8174 49.9662 57.7662 44.6924 55.8424C45.8412 54.9187 46.7149 53.6662 47.1624 52.2262C47.6712 52.3962 48.2037 52.4999 48.7499 52.4999C51.5074 52.4999 53.7499 50.2574 53.7499 47.4999V44.5699L57.6174 48.4374C58.4062 49.2274 59.3437 49.7399 60.3262 49.9162C60.6399 49.9724 60.9524 50.0012 61.2624 50.0012C62.5837 50.0012 63.8324 49.4899 64.7862 48.5362C65.7287 47.5912 66.2499 46.3362 66.2499 44.9999C66.2499 43.6637 65.7287 42.4087 64.8587 41.5449L55.4099 30.2762C54.0337 28.6349 52.4212 27.2137 50.6174 26.0537L38.1412 18.0324C36.3662 16.8912 34.3199 16.1649 32.2249 15.9337L26.4724 15.2949L28.0174 13.7499L17.4999 3.23242L0.732422 19.9999L11.2499 30.5174L12.1574 29.6099L13.5337 32.3612C14.6549 34.6037 16.1224 36.6387 17.8949 38.4112C18.7512 39.2674 19.6824 40.0637 20.6624 40.7774L31.8774 48.9337C32.0887 49.0874 32.3112 49.2187 32.5374 49.3399C32.5187 49.5587 32.4999 49.7787 32.4999 49.9999C32.4999 52.3599 33.5987 54.4662 35.3074 55.8424C30.0337 57.7662 26.2499 62.8174 26.2499 68.7499V69.6187C24.6437 67.3324 22.3599 65.5649 19.6924 64.5912C21.4012 63.2162 22.4999 61.1099 22.4999 58.7499C22.4999 54.6137 19.1362 51.2499 14.9999 51.2499C10.8637 51.2499 7.49992 54.6137 7.49992 58.7499C7.49992 61.1099 8.59867 63.2162 10.3074 64.5924C5.03367 66.5162 1.24992 71.5674 1.24992 77.4999V78.7499H28.7499V77.4999C28.7499 74.7324 27.9212 72.1587 26.5099 69.9999H53.4912C52.0787 72.1587 51.2499 74.7324 51.2499 77.4999V78.7499H78.7499V77.4999C78.7499 71.5674 74.9662 66.5162 69.6924 64.5924V64.5924ZM9.99992 58.7499C9.99992 55.9924 12.2424 53.7499 14.9999 53.7499C17.7574 53.7499 19.9999 55.9924 19.9999 58.7499C19.9999 61.5074 17.7574 63.7499 14.9999 63.7499C12.2424 63.7499 9.99992 61.5074 9.99992 58.7499ZM18.4812 66.8124L14.9999 70.6412L11.5187 66.8124C12.6174 66.4537 13.7837 66.2499 14.9999 66.2499C16.2162 66.2499 17.3824 66.4537 18.4812 66.8124ZM3.81867 76.2499C4.21117 72.7199 6.24367 69.6799 9.13367 67.9062L14.9999 74.3587L20.8649 67.9062C23.7549 69.6799 25.7887 72.7199 26.1799 76.2499H3.81867ZM40.8974 42.5587C40.5899 41.6974 40.0974 40.9062 39.4049 40.2824L30.2537 32.0462L39.9099 34.6799C40.4512 34.8274 40.9624 35.0599 41.4299 35.3712C42.8824 36.3412 43.7499 37.9624 43.7499 39.7087V43.5149C42.8912 43.0162 41.9274 42.6824 40.8974 42.5587ZM63.0174 43.2324C63.4899 43.7049 63.7499 44.3324 63.7499 44.9999C63.7499 45.6674 63.4899 46.2949 63.0174 46.7674C62.4287 47.3574 61.6124 47.6049 60.7699 47.4562C60.1662 47.3474 59.6837 46.9687 59.3862 46.6699L53.7499 41.0349V32.1862L63.0174 43.2324ZM4.26742 19.9999L17.4999 6.76742L24.4824 13.7499L11.2499 26.9824L4.26742 19.9999ZM22.1337 38.7562C21.2587 38.1187 20.4262 37.4087 19.6624 36.6449C18.0799 35.0624 16.7712 33.2462 15.7699 31.2437L14.0212 27.7474L24.2099 17.5587L31.9499 18.4199C33.6649 18.6099 35.3387 19.2037 36.7912 20.1374L49.2674 28.1587C49.9637 28.6062 50.6224 29.1062 51.2512 29.6399V47.4999C51.2512 48.8787 50.1299 49.9999 48.7512 49.9999C48.2999 49.9999 47.8649 49.8762 47.4837 49.6512C47.4187 48.2562 46.9787 46.9587 46.2512 45.8624V39.7074C46.2512 37.1237 44.9674 34.7249 42.8174 33.2912C42.1249 32.8299 41.3687 32.4849 40.5687 32.2674L27.8312 28.7937C27.4549 28.6924 27.0537 28.7699 26.7437 29.0062C26.4324 29.2437 26.2499 29.6099 26.2499 29.9999V31.2499C26.2499 31.6049 26.3999 31.9424 26.6637 32.1787L37.7324 42.1399C38.3787 42.7224 38.7499 43.5549 38.7499 44.4262C38.7499 46.1199 37.3699 47.4999 35.6762 47.4999H35.1562C34.5024 47.4999 33.8774 47.2962 33.3487 46.9124L22.1337 38.7562ZM34.9999 49.9999C34.9999 49.9962 35.0012 49.9924 35.0012 49.9874C35.0537 49.9887 35.1037 49.9999 35.1562 49.9999H35.6762C38.4999 49.9999 40.8149 47.8812 41.1774 45.1549C43.3649 45.6874 44.9999 47.6499 44.9999 49.9999C44.9999 52.7574 42.7574 54.9999 39.9999 54.9999C37.2424 54.9999 34.9999 52.7574 34.9999 49.9999ZM43.4812 58.0624L39.9999 61.8912L36.5187 58.0624C37.6174 57.7037 38.7837 57.4999 39.9999 57.4999C41.2162 57.4999 42.3824 57.7037 43.4812 58.0624ZM28.8187 67.4999C29.2112 63.9699 31.2437 60.9299 34.1337 59.1562L39.9999 65.6087L45.8649 59.1562C48.7549 60.9299 50.7887 63.9699 51.1799 67.4999H28.8187ZM59.9999 58.7499C59.9999 55.9924 62.2424 53.7499 64.9999 53.7499C67.7574 53.7499 69.9999 55.9924 69.9999 58.7499C69.9999 61.5074 67.7574 63.7499 64.9999 63.7499C62.2424 63.7499 59.9999 61.5074 59.9999 58.7499ZM68.4812 66.8124L64.9999 70.6412L61.5187 66.8124C62.6174 66.4537 63.7837 66.2499 64.9999 66.2499C66.2162 66.2499 67.3824 66.4537 68.4812 66.8124ZM53.8187 76.2499C54.2112 72.7199 56.2437 69.6799 59.1337 67.9062L64.9999 74.3587L70.8649 67.9062C73.7549 69.6799 75.7887 72.7199 76.1799 76.2499H53.8187Z" fill="#68463E"/>
<path d="M78.3837 3.38371L76.6162 1.61621L67.5 10.7325L65.8837 9.11621L64.1162 10.8837L67.5 14.2675L78.3837 3.38371Z" fill="#68463E"/>
<path d="M67.5 25C69.5675 25 71.25 23.3175 71.25 21.25C71.25 19.1825 69.5675 17.5 67.5 17.5C65.4325 17.5 63.75 19.1825 63.75 21.25C63.75 23.3175 65.4325 25 67.5 25ZM67.5 20C68.1887 20 68.75 20.5613 68.75 21.25C68.75 21.9387 68.1887 22.5 67.5 22.5C66.8113 22.5 66.25 21.9387 66.25 21.25C66.25 20.5613 66.8113 20 67.5 20Z" fill="#68463E"/>
<path d="M46.25 10H61.25V12.5H46.25V10Z" fill="#68463E"/>
<path d="M46.25 20H56.25V22.5H46.25V20Z" fill="#68463E"/>
<path d="M58.75 20H61.25V22.5H58.75V20Z" fill="#68463E"/>
<path d="M46.25 15H61.25V17.5H46.25V15Z" fill="#68463E"/>
</svg>
