<svg width="100" height="100" viewBox="0 0 100 100" fill="none" xmlns="http://www.w3.org/2000/svg">
<g clip-path="url(#clip0)">
<path d="M95.7388 49.6423L95.665 49.6451C93.3968 49.7304 91.439 51.3242 90.9041 53.521L89.3347 59.9654C87.8441 66.0855 83.7437 71.1824 78.0849 73.9488C77.4205 74.2734 76.6707 74.2023 76.0793 73.7578C75.4879 73.3134 75.2109 72.613 75.338 71.8843L76.5769 64.7886C76.9502 62.6505 75.5753 60.6415 73.447 60.215C71.8316 59.8917 70.214 60.5788 69.3257 61.9665L61.3074 74.4919C60.1593 73.6644 58.5453 73.7634 57.5128 74.7954L51.6966 80.6117C51.1246 81.1839 51.1246 82.1113 51.6966 82.6833L68.5845 99.5712C68.8707 99.8572 69.2457 100 69.6205 100C69.9953 100 70.3703 99.8572 70.6564 99.5712L76.4726 93.755C77.5603 92.6671 77.6134 90.9324 76.6351 89.7785C78.5007 88.7408 80.3218 87.5517 82.0496 86.2408C82.6941 85.7519 82.8201 84.833 82.331 84.1884C81.8425 83.5441 80.9236 83.4179 80.2787 83.907C77.3084 86.1603 74.8189 87.4224 74.4912 87.6171L63.4513 76.5773L71.7931 63.5464C72.0255 63.1833 72.4488 63.0046 72.8714 63.0878C73.4287 63.1995 73.7884 63.7253 73.6906 64.2849L72.4517 71.3806C72.1361 73.189 72.8517 74.9974 74.3191 76.0999C75.7867 77.2027 77.7224 77.3869 79.3714 76.5808C85.8146 73.4308 90.4837 67.6275 92.181 60.6587L93.7504 54.2144C94.2554 52.1394 97.2402 52.0429 97.0642 53.8613C96.1002 63.8009 91.658 73.1525 84.5558 80.1933C83.9814 80.7628 83.9773 81.6904 84.5468 82.2648C85.1164 82.8392 86.0435 82.8437 86.6183 82.2738C94.205 74.7527 98.9504 64.7626 99.98 54.1439C100.219 51.6843 98.2416 49.5536 95.7388 49.6423ZM69.6205 96.4638L54.8052 81.6486L59.5976 76.8671L74.4007 91.6831L69.6205 96.4638Z" fill="#FD5533"/>
<path d="M30.9766 24.7069L32.9242 25.7861C32.9404 25.7953 32.9539 25.8084 32.9633 25.8246L36.0105 31.1024C36.0199 31.1184 36.0246 31.1367 36.0242 31.1553L35.9854 33.382C35.9662 34.4832 36.5467 35.5094 37.5006 36.0602L41.9145 38.6082C42.3834 38.8793 42.907 39.0145 43.4303 39.0145C43.9711 39.0145 44.5115 38.8701 44.9912 38.5817L46.901 37.4342C46.9164 37.425 46.9344 37.4201 46.9529 37.4201H53.0475C53.066 37.4201 53.0842 37.425 53.1 37.4346L55.0092 38.5819C55.9535 39.149 57.1326 39.1594 58.0857 38.6084L62.4996 36.0602C63.4535 35.5096 64.0338 34.4834 64.0149 33.382L63.9762 31.1553C63.9758 31.1367 63.9805 31.1186 63.9897 31.1026L67.0373 25.8244C67.0465 25.8084 67.06 25.7953 67.0756 25.7865L69.0236 24.7069C69.9869 24.1731 70.5854 23.157 70.5854 22.0557V16.959C70.5854 15.8578 69.9871 14.842 69.0236 14.3078L67.0762 13.2285C67.06 13.2194 67.0465 13.2063 67.0369 13.1899L66.861 12.885C66.4565 12.1846 65.5602 11.9445 64.86 12.3492C64.1594 12.7537 63.9195 13.6496 64.3242 14.3502L64.4998 14.6547C64.7746 15.1309 65.174 15.5235 65.6555 15.7904L67.6031 16.8699C67.6356 16.8881 67.6559 16.9221 67.6559 16.959V22.0557C67.6559 22.0926 67.6358 22.1266 67.6035 22.1445L65.6549 23.2246C65.174 23.4912 64.7746 23.884 64.5 24.3598L61.4524 29.6379C61.1775 30.1143 61.0373 30.6567 61.0469 31.2063L61.0856 33.433C61.0863 33.4699 61.0668 33.5043 61.0348 33.5229L56.6207 36.0713C56.5889 36.0895 56.549 36.0891 56.518 36.0703L54.609 34.9233C54.1375 34.6401 53.5977 34.4902 53.0477 34.4902H46.9531C46.4027 34.4902 45.8627 34.6401 45.392 34.9233L43.4826 36.0703C43.4512 36.0893 43.4117 36.0897 43.3799 36.0711L38.966 33.5231C38.934 33.5043 38.9143 33.4701 38.915 33.433L38.9539 31.2063C38.9635 30.6567 38.8232 30.1143 38.5482 29.6377L35.501 24.36C35.2262 23.8838 34.8268 23.4912 34.3453 23.2242L32.3973 22.1445C32.365 22.1268 32.3449 22.0926 32.3449 22.0557V16.959C32.3449 16.9221 32.3652 16.8879 32.3971 16.8701L34.3459 15.7901C34.8268 15.5235 35.2262 15.1307 35.5008 14.6549L38.5484 9.37677C38.8232 8.90041 38.9635 8.35802 38.9539 7.80841L38.915 5.58166C38.9143 5.54494 38.9338 5.51056 38.9658 5.49201L43.3801 2.94337C43.4121 2.92502 43.4512 2.92541 43.4828 2.94455L45.3922 4.09181C45.8635 4.37482 46.4033 4.52462 46.9531 4.52462H53.0477C53.5971 4.52462 54.1367 4.37502 54.6088 4.09162L56.518 2.94455C56.5496 2.92541 56.5889 2.92502 56.6209 2.94357L61.0352 5.4922C61.0668 5.51056 61.0863 5.54494 61.0856 5.58166L61.0469 7.80861C61.0389 8.26916 61.1414 8.73732 61.3436 9.16212C61.6912 9.89259 62.5654 10.2033 63.2955 9.85607C64.0262 9.50861 64.3367 8.63459 63.9895 7.90412C63.9795 7.88341 63.9762 7.86701 63.9764 7.85959L64.015 5.63283C64.0342 4.53127 63.4535 3.50509 62.4998 2.9549L58.0857 0.406265C57.132 -0.144711 55.9527 -0.13475 55.0088 0.433023L53.1004 1.5797C53.0842 1.58947 53.0658 1.59455 53.0475 1.59455H46.9529C46.9344 1.59455 46.9162 1.58947 46.9004 1.58009L44.9916 0.433218C44.0481 -0.134164 42.8686 -0.144907 41.9147 0.40607L37.5008 2.95431C36.5469 3.5049 35.9664 4.53107 35.9854 5.63244L36.0242 7.8592C36.0246 7.87775 36.0199 7.89591 36.0107 7.91193L32.9631 13.1901C32.9539 13.2061 32.9404 13.2192 32.9248 13.2279L30.976 14.3078C30.0131 14.842 29.415 15.858 29.415 16.9588V22.0555C29.415 23.157 30.0133 24.1729 30.9766 24.7069V24.7069Z" fill="#FD5533"/>
<path d="M50.0004 10.6484C45.1156 10.6484 41.1416 14.6227 41.1416 19.5074C41.1416 24.3922 45.1158 28.3662 50.0004 28.3662C54.8854 28.3662 58.8594 24.392 58.8594 19.5074C58.8596 14.6225 54.8854 10.6484 50.0004 10.6484V10.6484ZM50.0004 25.4367C46.7311 25.4367 44.0713 22.777 44.0713 19.5076C44.0713 16.2383 46.7311 13.5781 50.0004 13.5781C53.2697 13.5781 55.9297 16.2381 55.9297 19.5074C55.9297 22.7768 53.2697 25.4367 50.0004 25.4367Z" fill="#FD5533"/>
<path d="M76.6499 48.2711C80.2845 48.2711 83.2415 45.3141 83.2415 41.6795C83.2415 38.0449 80.2845 35.0879 76.6499 35.0879C73.0153 35.0879 70.0581 38.0449 70.0581 41.6795C70.0581 45.3141 73.0153 48.2711 76.6499 48.2711ZM76.6499 38.0176C78.669 38.0176 80.3118 39.6604 80.3118 41.6795C80.3118 43.6986 78.669 45.3414 76.6499 45.3414C74.6306 45.3414 72.9878 43.6986 72.9878 41.6795C72.9878 39.6604 74.6308 38.0176 76.6499 38.0176Z" fill="#FD5533"/>
<path d="M66.4837 32.0672L66.5089 33.5061L64.5009 36.984L63.2429 37.6815C62.4319 38.1305 61.9282 38.9856 61.9282 39.9127V43.4465C61.9282 44.3733 62.4317 45.2283 63.2425 45.6778L64.5009 46.3754L66.5089 49.8531L66.4837 51.2922C66.4677 52.2188 66.9561 53.0824 67.7587 53.5459L70.8192 55.3127C71.214 55.5406 71.6542 55.6543 72.0946 55.6543C72.5497 55.6543 73.0046 55.5328 73.4085 55.2902L74.6419 54.549H78.6579L79.8913 55.2902C80.6856 55.7674 81.6776 55.7762 82.4808 55.3127L85.5409 53.5459C86.3436 53.0826 86.8321 52.2192 86.8161 51.2922L86.7909 49.8531L88.7989 46.3754L90.0579 45.6776C90.8683 45.2279 91.3718 44.3731 91.3718 43.4465V39.9127C91.3718 38.9858 90.8683 38.1309 90.0577 37.6817L88.7989 36.9838L86.7909 33.5061L86.8161 32.0672C86.8321 31.1403 86.3436 30.2768 85.5411 29.8135L82.4806 28.0465C81.6784 27.583 80.686 27.5922 79.8913 28.0692L78.6579 28.8104H74.6419L73.4085 28.0692C72.6142 27.592 71.622 27.5832 70.819 28.0465L67.7585 29.8137C66.9562 30.277 66.4677 31.1407 66.4837 32.0672V32.0672ZM69.4167 32.2391L72.0905 30.6953L73.2233 31.376C73.62 31.6143 74.0741 31.7401 74.537 31.7401H78.7628C79.2255 31.7401 79.6796 31.6141 80.0767 31.3758L81.2093 30.6953L83.8831 32.2391L83.8601 33.5602C83.852 34.0235 83.9702 34.4803 84.2015 34.8801L86.314 38.5389C86.5452 38.9401 86.8815 39.2707 87.2864 39.4951L88.4421 40.1358V43.2235L87.286 43.8641C86.8811 44.0887 86.5448 44.4196 86.3142 44.8196L84.2015 48.4787C83.9698 48.8797 83.8519 49.3362 83.8599 49.7992L83.8829 51.1203L81.2091 52.6639L80.0763 51.9834C79.6796 51.7451 79.2255 51.6194 78.7626 51.6194H74.537C74.0743 51.6194 73.6202 51.7453 73.2229 51.9836L72.0905 52.6639L69.4167 51.1203L69.4397 49.7992C69.4478 49.3362 69.3298 48.8797 69.0983 48.4791L66.9858 44.8203C66.7546 44.4192 66.4183 44.0885 66.0132 43.8641L64.8577 43.2237V40.136L66.012 39.4961C66.4175 39.2719 66.7544 38.9408 66.9854 38.5399L69.0978 34.8813C69.3296 34.4805 69.4478 34.0237 69.4397 33.5604L69.4167 32.2391Z" fill="#FD5533"/>
<path d="M23.3504 48.2711C26.985 48.2711 29.942 45.3141 29.942 41.6795C29.942 38.0449 26.985 35.0879 23.3504 35.0879C19.7158 35.0879 16.7588 38.0449 16.7588 41.6795C16.7588 45.3141 19.7158 48.2711 23.3504 48.2711ZM23.3504 38.0176C25.3695 38.0176 27.0123 39.6604 27.0123 41.6795C27.0123 43.6986 25.3695 45.3414 23.3504 45.3414C21.3312 45.3414 19.6885 43.6986 19.6885 41.6795C19.6885 39.6604 21.3312 38.0176 23.3504 38.0176Z" fill="#FD5533"/>
<path d="M9.94219 45.6779L11.201 46.3756L13.2088 49.8533L13.1834 51.2924C13.1674 52.2192 13.6561 53.0828 14.4586 53.5461L17.5187 55.3127C18.3209 55.7764 19.3133 55.7678 20.1084 55.2904L21.3418 54.5492H25.3576L26.5912 55.2904C26.9951 55.533 27.4498 55.6545 27.9053 55.6545C28.3455 55.6545 28.7859 55.5408 29.1805 55.3129L32.2406 53.5461C33.0434 53.0828 33.532 52.2192 33.516 51.2922L33.4906 49.8533L35.4984 46.3756L36.7576 45.6778C37.568 45.2281 38.0717 44.3733 38.0717 43.4467V39.9129C38.0717 38.986 37.568 38.1311 36.7574 37.6819L35.4986 36.984L33.4906 33.5063L33.516 32.0674C33.532 31.1406 33.0434 30.277 32.2408 29.8137L29.1807 28.0469C28.3783 27.583 27.3861 27.592 26.5914 28.0694L25.3576 28.8106H21.3418L20.108 28.0692C19.3133 27.5918 18.3213 27.5836 17.5189 28.0467L14.4588 29.8137C13.6561 30.277 13.1674 31.1406 13.1834 32.0676L13.2088 33.5063L11.201 36.984L9.94238 37.6817C9.13164 38.1311 8.62793 38.986 8.62793 39.9129V43.4467C8.62793 44.3735 9.13145 45.2283 9.94219 45.6779V45.6779ZM11.5576 40.1362L12.7119 39.4963C13.117 39.2723 13.4537 38.9416 13.6855 38.5401L15.7986 34.8803C16.0299 34.4795 16.1479 34.0231 16.1398 33.5604L16.1166 32.2397L18.7906 30.6957L19.9229 31.376C20.3195 31.6145 20.7738 31.7405 21.2369 31.7405H25.4629C25.9258 31.7405 26.3801 31.6143 26.7766 31.3762L27.9094 30.6957L30.5832 32.2397L30.56 33.5606C30.552 34.0231 30.6699 34.4795 30.9014 34.8805L33.0145 38.5405C33.2463 38.9418 33.5828 39.2723 33.9879 39.4965L35.1422 40.1363V43.224L33.9867 43.8645C33.582 44.0887 33.2457 44.4192 33.0143 44.8201L30.901 48.4805C30.6697 48.8815 30.552 49.3375 30.56 49.8L30.5832 51.1207L27.9092 52.6645L26.777 51.9844C26.3803 51.7459 25.926 51.6199 25.4629 51.6199H21.2369C20.774 51.6199 20.3197 51.7461 19.9232 51.9842L18.7906 52.6645L16.1166 51.1207L16.1398 49.7998C16.1479 49.3375 16.0301 48.8815 15.7984 48.4797L13.6854 44.8197C13.4539 44.4192 13.1178 44.0889 12.7129 43.8645L11.5574 43.224V40.1362H11.5576Z" fill="#FD5533"/>
<path d="M42.4869 74.7949C41.4545 73.7628 39.8404 73.6638 38.6923 74.4914L30.674 61.966C29.7859 60.5785 28.1671 59.8898 26.5525 60.2146C24.4244 60.641 23.0494 62.65 23.4228 64.788L24.6615 71.8837C24.7886 72.6123 24.5117 73.3126 23.9203 73.7572C23.3293 74.2015 22.5791 74.2728 21.9146 73.948C16.2558 71.1814 12.1554 66.0845 10.665 59.9648L9.09547 53.5205C8.56051 51.3236 6.6027 49.7298 4.33356 49.6445L4.26168 49.6417C1.77848 49.5466 -0.21996 51.6701 0.0194933 54.1433C1.47438 69.1453 10.199 82.4546 23.3654 89.7773C22.3865 90.9308 22.4388 92.6662 23.5271 93.7546L29.3433 99.5709C29.6295 99.8568 30.0043 99.9998 30.3793 99.9998C30.7541 99.9998 31.1291 99.8568 31.415 99.5709L37.9154 93.0709C38.4875 92.4986 38.4875 91.5712 37.9154 90.9992C37.3433 90.4275 36.416 90.4271 35.8437 90.9992L30.3804 96.4625L25.599 91.6703L40.4152 76.8669L45.1959 81.6474L39.9849 86.858C39.4129 87.4302 39.4129 88.3576 39.9849 88.9296C40.5572 89.5013 41.4847 89.5017 42.0564 88.9296L48.3029 82.6834C48.5777 82.4085 48.732 82.0361 48.732 81.6474C48.732 81.2587 48.5777 80.8865 48.3031 80.6115L42.4869 74.7949ZM2.93551 53.8607C2.86578 53.141 3.45484 52.5371 4.15231 52.5699C4.17184 52.5707 4.24449 52.5732 4.22496 52.5726C5.20563 52.6093 6.0191 53.2689 6.24899 54.2138L7.81852 60.6582C9.51559 67.6267 14.1845 73.43 20.6279 76.5802C22.2769 77.3863 24.213 77.2023 25.6802 76.0994C27.1478 74.9966 27.8632 73.1884 27.5476 71.38L26.3089 64.2843C26.2111 63.7248 26.5711 63.199 27.1279 63.0873C27.5515 63.0029 27.974 63.1824 28.2064 63.5458L36.5482 76.5767L25.5084 87.6166C25.331 87.4519 5.28043 78.0398 2.93551 53.8607V53.8607Z" fill="#FD5533"/>
</g>
<defs>
<clipPath id="clip0">
<rect width="100" height="100" fill="white"/>
</clipPath>
</defs>
</svg>
