<svg width="80" height="80" viewBox="0 0 80 80" fill="none" xmlns="http://www.w3.org/2000/svg">
<path d="M25.4746 50.6363L25.4587 50.621C23.9127 49.6839 22.1317 49.1836 20.3356 49.1836C18.3051 49.1836 16.3527 49.7931 14.6975 50.9487C14.2441 51.261 13.8226 51.6204 13.4321 51.995C11.5108 53.8693 10.4492 56.3842 10.4492 59.0864C10.4492 64.5372 14.8848 68.9886 20.3514 68.9886C25.8181 68.9886 30.2536 64.5531 30.2536 59.0864C30.2072 55.6655 28.3952 52.4325 25.4746 50.6363V50.6363ZM20.3203 65.8648C16.587 65.8648 13.5413 62.8191 13.5413 59.0864C13.5413 57.2432 14.2759 55.5251 15.5876 54.2287C15.853 53.9633 16.1502 53.729 16.4625 53.5105C17.6022 52.7296 18.9298 52.3074 20.3203 52.3074C21.554 52.3074 22.7565 52.6515 23.8346 53.2915C25.8492 54.5258 27.0987 56.7436 27.0987 59.0864C27.0987 62.8191 24.053 65.8648 20.3203 65.8648Z" fill="#FD5533"/>
<path d="M38.485 57.165H38.6565C39.125 57.165 39.5625 56.9618 39.859 56.5872C40.1561 56.2278 40.2812 55.7434 40.1872 55.2907C39.344 51.1206 37.2355 47.372 34.0958 44.4355C33.7523 44.1073 33.2838 43.9669 32.8152 44.0292C32.3466 44.092 31.9403 44.3733 31.6907 44.7637C31.5028 45.0761 31.2533 45.3257 30.9562 45.5288C30.9409 45.5447 30.9098 45.5599 30.8939 45.5758C30.8781 45.5911 29.5352 46.5599 28.0514 45.4666C27.9574 45.4038 27.9422 45.3885 27.8641 45.3415C27.7079 45.2323 26.9892 44.6698 27.0362 43.1701C27.0362 42.8895 27.1612 42.5612 27.3485 42.2177C27.5828 41.8114 27.6298 41.3117 27.4578 40.8742C27.2857 40.4368 26.927 40.0933 26.4895 39.9371C24.4432 39.2654 22.3035 38.9219 20.1327 38.9219C18.1333 38.9219 16.1499 39.219 14.2438 39.7809C13.807 39.906 13.4476 40.2342 13.2603 40.6558C13.0724 41.0774 13.0883 41.5619 13.2915 41.9676C13.8692 43.139 13.4318 44.5606 12.3073 45.2006L12.2292 45.2476C11.0737 45.9193 9.60513 45.5599 8.90227 44.4196C8.65274 44.0292 8.26226 43.7638 7.79369 43.7015C7.34037 43.6387 6.8718 43.7796 6.52831 44.0761C3.40451 46.8564 1.23371 50.4488 0.249596 54.4786C0.140385 54.9313 0.233733 55.3999 0.499134 55.7593C0.765145 56.1339 1.18674 56.3682 1.63944 56.3999C2.92008 56.4932 3.92006 57.5866 3.92006 58.8672V58.9612C3.92006 60.3046 2.85785 61.398 1.51437 61.4291C1.06166 61.4443 0.624208 61.6634 0.342944 62.0069C0.0622904 62.3662 -0.0627837 62.8348 0.0305642 63.2875C0.827377 67.3954 2.84198 71.1129 5.85657 74.0335C6.20007 74.3617 6.65338 74.5179 7.12195 74.4709C7.59052 74.424 7.99625 74.1586 8.26226 73.7681C8.98037 72.6589 10.4331 72.2995 11.5886 72.956L11.6667 73.0024C12.854 73.69 13.2603 75.2049 12.5727 76.3922L12.5416 76.4386C12.3073 76.8449 12.2762 77.3293 12.4324 77.7662C12.5886 78.2036 12.948 78.5471 13.3848 78.7033C15.5562 79.4532 17.821 79.8436 20.1327 79.8436C22.0533 79.8436 23.9593 79.5782 25.8019 79.0474C26.2705 78.9065 26.6457 78.5789 26.8171 78.1255C27.0051 77.6881 26.9581 77.1731 26.7238 76.7668C26.0362 75.5795 26.4425 74.0646 27.6298 73.3929L27.7079 73.3465C28.8946 72.6589 30.4095 73.0652 31.0812 74.2519L31.1752 74.424C31.4095 74.8303 31.8152 75.111 32.2685 75.189C32.7212 75.2671 33.2057 75.1268 33.5492 74.8303C36.798 72.003 39.0469 68.3014 40.031 64.1154C40.1403 63.6469 40.031 63.1624 39.7345 62.7878C39.4374 62.4132 38.9847 62.1942 38.5161 62.1942H38.4691C37.1104 62.1942 36.0012 61.0856 36.0012 59.7262V59.6329C36.0012 58.2742 37.1257 57.165 38.485 57.165V57.165ZM36.5637 64.9745C35.7517 67.3484 34.4552 69.5198 32.706 71.3471C30.9562 69.7694 28.3009 69.41 26.146 70.6595L26.0679 70.7065C24.0057 71.8938 22.9905 74.2208 23.3346 76.4544C22.2876 76.6576 21.2102 76.7509 20.1327 76.7509C18.7111 76.7509 17.3054 76.5795 15.9308 76.236C16.3683 73.9554 15.3372 71.5656 13.2286 70.3472L13.1505 70.3008C11.1359 69.1446 8.6991 69.3637 6.96576 70.6913C5.34102 68.8011 4.15434 66.6145 3.46674 64.2246C5.57531 63.4284 7.05911 61.398 7.05911 58.9923V58.8989C7.05911 56.6342 5.68513 54.6501 3.71689 53.7758C4.5137 51.4329 5.79434 49.3085 7.51243 47.4971C9.26163 48.9028 11.7448 49.1523 13.807 47.9656L13.8851 47.9187C15.8686 46.7783 16.8991 44.5606 16.6495 42.405C19.0546 41.9053 21.6006 41.9365 23.9905 42.4831C23.9593 42.6863 23.9435 42.8895 23.9276 43.092C23.8495 45.8723 25.3333 47.4812 26.3022 48.0437C28.9104 49.9021 31.6279 48.918 32.7371 48.106C32.8622 48.0279 32.9714 47.9339 33.0806 47.8558C34.7517 49.7301 35.986 51.9168 36.7199 54.3224C34.4863 55.0564 32.8774 57.165 32.8774 59.6329V59.7262C32.8933 62.1319 34.4241 64.1935 36.5637 64.9745V64.9745Z" fill="#FD5533"/>
<path d="M79.9997 14.1032C79.9997 10.4169 77.7038 7.24613 74.3616 6.02833C74.3768 5.90326 74.3768 5.77818 74.3768 5.65311C74.3768 2.51406 71.8314 0.0461365 68.5978 0.0461365C64.1153 0.0461365 62.8035 1.45185 62.0226 2.84169C61.8975 2.73248 61.7413 2.57629 61.6162 2.45122C60.6321 1.48296 59.1331 0.0302734 55.9312 0.0302734C52.6823 0.0302734 50.1521 2.52931 50.1521 5.73121C50.1521 5.84042 50.1521 5.95024 50.1674 6.05945C46.8252 7.27785 44.5293 10.4328 44.5293 14.1032C44.5293 15.8836 45.076 17.5864 46.0753 19.0232C45.0601 20.46 44.5293 22.1623 44.5293 23.9432C44.5293 27.6289 46.8252 30.7997 50.1674 32.0181C50.1521 32.1432 50.1521 32.2682 50.1521 32.3927C50.1521 35.6886 52.8074 38.4689 55.9312 38.4689C57.3838 38.4689 58.5235 37.6098 59.3515 36.9851C59.5077 36.8758 59.695 36.7197 59.82 36.6416H64.693C64.8181 36.7349 65.0213 36.8758 65.1616 36.9851C65.9895 37.6098 67.1299 38.4689 68.5825 38.4689C71.7216 38.4689 74.3616 35.7508 74.3616 32.5489C74.3616 32.3927 74.3616 32.2524 74.3457 32.0962C75.7203 31.5965 76.954 30.7375 77.9228 29.613C79.2657 28.0511 79.9997 26.0518 79.9997 24.0054C79.9997 22.2092 79.453 20.4912 78.4536 19.0543C79.453 17.6175 79.9997 15.8994 79.9997 14.1032ZM72.7216 29.347C71.5502 28.7692 68.5514 27.4886 66.474 28.5349C65.7083 28.9254 65.3959 29.8625 65.7711 30.6282C66.1616 31.3933 67.0987 31.7057 67.8638 31.3311C68.3794 31.0651 69.9413 31.5025 71.1908 32.0962C71.2219 32.2524 71.2378 32.4244 71.2378 32.5806C71.2378 34.0955 70.0194 35.392 68.5825 35.392C68.1762 35.392 67.5203 34.8917 67.0359 34.533C66.3648 34.0327 65.74 33.5641 64.9273 33.5641H63.8029V25.5521C63.8029 24.693 63.1 23.9902 62.241 23.9902C61.3819 23.9902 60.6791 24.693 60.6791 25.5521V33.5641H59.5546C58.7426 33.5641 58.102 34.0327 57.4461 34.533C56.9616 34.8917 56.3058 35.392 55.9 35.392C54.5096 35.392 53.2448 33.9863 53.2448 32.4397C53.2448 32.2994 53.2601 32.1584 53.2759 32.0181C54.4943 31.4714 55.9464 31.081 56.4467 31.3311C57.2118 31.7216 58.1489 31.4092 58.5394 30.6282C58.9299 29.8625 58.6175 28.9254 57.8366 28.5349C55.8531 27.5356 52.9947 28.6759 51.7451 29.2848C49.3242 28.6759 47.622 26.5203 47.622 23.9902C47.622 22.6467 48.1058 21.3661 48.996 20.3661C49.7928 20.0384 52.4169 19.1635 54.1039 20.8664C54.4162 21.1788 54.8067 21.3191 55.2124 21.3191C55.6188 21.3191 56.0093 21.1629 56.3216 20.8664C56.9305 20.2569 56.9305 19.2727 56.3216 18.6639C53.7445 16.0867 50.3394 16.6645 48.5744 17.227C47.9655 16.321 47.622 15.2747 47.622 14.1655C47.622 11.6823 49.2772 9.55786 51.6359 8.91785C52.3388 9.30832 53.5255 9.6988 55.3997 9.6988C55.6029 9.6988 55.822 9.6988 56.0404 9.68293C56.8994 9.65182 57.5712 8.91785 57.5242 8.0588C57.4772 7.19976 56.7591 6.52802 55.9 6.575C54.4474 6.63723 53.6505 6.41881 53.2912 6.26262C53.2601 6.10643 53.2448 5.95024 53.2448 5.79405C53.2448 4.35661 54.4162 3.21691 55.9 3.21691C57.8366 3.21691 58.6016 3.96614 59.4143 4.74709C60.0854 5.40357 60.9134 6.19978 62.241 6.19978C63.7876 6.19978 64.3807 5.09119 64.6619 4.54453C64.9743 3.95088 65.3648 3.20105 68.5825 3.20105C70.0975 3.20105 71.2378 4.26326 71.2378 5.68423C71.2378 5.93437 71.1908 6.19978 71.1286 6.44992C70.6911 6.54327 70.0663 6.59025 69.2226 6.55913C68.3635 6.51215 67.6295 7.18389 67.5984 8.04294C67.5673 8.90198 68.2232 9.63595 69.0822 9.66707C69.3007 9.68293 69.5197 9.68293 69.7229 9.68293C71.4409 9.68293 72.5806 9.35469 73.2994 8.99594C75.4238 9.77689 76.8759 11.7915 76.8759 14.1185C76.8759 15.2277 76.5482 16.3051 75.9387 17.2112C74.1743 16.6492 70.7692 16.0709 68.1921 18.648C67.5826 19.2575 67.5826 20.2416 68.1921 20.8505C68.5044 21.1629 68.8949 21.3032 69.3007 21.3032C69.707 21.3032 70.0975 21.147 70.4098 20.8505C72.081 19.1794 74.7051 20.0384 75.5171 20.3508C76.4073 21.3502 76.9076 22.6467 76.9076 24.0054C76.8759 26.5203 75.1267 28.7381 72.7216 29.347V29.347Z" fill="#FD5533"/>
<path d="M8.02766 29.1916L12.6664 32.2062C12.6664 32.2062 12.6816 32.2062 12.6816 32.2221C12.7134 32.2373 12.7286 32.2532 12.7597 32.269C12.7756 32.2843 12.7915 32.2843 12.8067 32.3002C12.8378 32.3154 12.8848 32.3313 12.9318 32.3471C12.9476 32.3471 12.9629 32.3624 12.9788 32.3624C13.0099 32.3783 13.0257 32.3783 13.0569 32.3935C13.0721 32.3935 13.088 32.4094 13.1038 32.4094H13.1191H13.135C13.1819 32.4252 13.213 32.4252 13.26 32.4405H13.2911H13.3064H13.3381C13.3692 32.4405 13.4162 32.4405 13.4473 32.4563H13.4943H13.5096C13.5724 32.4563 13.6188 32.4563 13.6816 32.4405H13.7127H13.7597C13.7908 32.4405 13.8219 32.4252 13.8689 32.4252C13.8848 32.4252 13.9 32.4252 13.9159 32.4094H13.9312H13.9629C13.994 32.3935 14.0251 32.3935 14.0562 32.3783C14.0721 32.3783 14.0873 32.3624 14.1032 32.3624C14.1191 32.3471 14.1502 32.3471 14.1654 32.3313C14.1813 32.3313 14.1972 32.3154 14.1972 32.3154C14.2124 32.3002 14.2435 32.3002 14.2594 32.2843H14.2753C14.3064 32.269 14.3375 32.2373 14.3845 32.2221L19.0073 29.2075C19.726 28.7389 19.9292 27.7707 19.4606 27.0519C18.9921 26.3338 18.0238 26.1307 17.3051 26.5992L15.3057 27.8957C15.9464 22.7726 17.8518 19.0393 20.9914 16.7745C27.4263 12.1358 37.079 14.9631 37.1882 14.9942C38.0161 15.2443 38.8904 14.7758 39.1406 13.9478C39.3901 13.1199 38.9215 12.245 38.1095 11.9955C37.6568 11.8545 26.8949 8.6685 19.2105 14.1974C15.1807 17.0869 12.8226 21.7726 12.1508 28.13L9.74575 26.5681C9.02704 26.0995 8.05878 26.3021 7.59021 27.0208C7.10578 27.7548 7.30895 28.723 8.02766 29.1916Z" fill="#FD5533"/>
<path d="M73.1591 46.3094L68.1141 44.1227C68.1141 44.1227 68.1141 44.1227 68.0982 44.1227L68.083 44.1069C68.0671 44.1069 68.0671 44.1069 68.0512 44.0916C68.0201 44.0758 68.0049 44.0758 67.9731 44.0605C67.9579 44.0605 67.942 44.0447 67.942 44.0447C67.9268 44.0447 67.9109 44.0288 67.895 44.0288C67.8798 44.0288 67.8487 44.0135 67.8328 44.0135C67.817 44.0135 67.817 44.0135 67.8017 44.0135C67.7858 44.0135 67.7706 44.0135 67.7547 43.9977C67.7389 43.9977 67.7077 43.9824 67.6925 43.9824C67.6766 43.9824 67.6766 43.9824 67.6608 43.9824C67.6455 43.9824 67.6144 43.9824 67.5985 43.9824C67.5827 43.9824 67.5674 43.9824 67.5363 43.9824C67.5204 43.9824 67.5204 43.9824 67.5046 43.9824C67.4735 43.9824 67.4582 43.9824 67.4265 43.9824C67.4112 43.9824 67.3954 43.9824 67.3801 43.9824C67.3642 43.9824 67.3642 43.9824 67.3484 43.9824C67.3173 43.9824 67.302 43.9824 67.2703 43.9824C67.255 43.9824 67.255 43.9824 67.2392 43.9824C67.2392 43.9824 67.2392 43.9824 67.2239 43.9824C67.2081 43.9824 67.2081 43.9824 67.1922 43.9824C67.1611 43.9824 67.1458 43.9977 67.1141 43.9977C67.0988 43.9977 67.083 43.9977 67.0677 44.0135C67.0519 44.0135 67.0519 44.0135 67.036 44.0288C67.0207 44.0288 66.9896 44.0447 66.9738 44.0447C66.9738 44.0447 66.9738 44.0447 66.9579 44.0447C66.9427 44.0447 66.9268 44.0447 66.9115 44.0605C66.8957 44.0605 66.8957 44.0758 66.8798 44.0758C66.8646 44.0758 66.8334 44.0916 66.8176 44.1069C66.8017 44.1069 66.7865 44.1227 66.7553 44.1227H66.7395C66.7395 44.1227 66.7395 44.1227 66.7236 44.1227C66.7084 44.1386 66.6925 44.1386 66.6614 44.1539C66.6455 44.1697 66.6303 44.1697 66.5992 44.185C66.5992 44.185 66.5833 44.185 66.5833 44.2008C66.5674 44.2167 66.5522 44.232 66.5211 44.232C66.5052 44.2478 66.4893 44.2478 66.4741 44.2631C66.4741 44.2631 66.4582 44.2631 66.4582 44.2789C66.443 44.2948 66.4112 44.3101 66.396 44.3259C66.3801 44.3412 66.3649 44.357 66.349 44.357L66.3331 44.3729C66.3331 44.3729 66.3331 44.3729 66.3179 44.3729L62.2722 48.1056C61.6322 48.6834 61.6011 49.6834 62.1789 50.3081C62.4912 50.6357 62.9128 50.8078 63.3344 50.8078C63.7096 50.8078 64.0843 50.6669 64.3966 50.4015L66.1458 48.7926C66.6303 60.3976 59.4455 64.0211 53.0418 64.9741C52.8697 65.0052 52.6983 65.0211 52.5262 65.0522C51.6672 65.1614 51.0735 65.9424 51.1675 66.8014C51.2608 67.5823 51.9326 68.1601 52.7135 68.1601C52.7764 68.1601 52.8386 68.1601 52.9167 68.1449C53.104 68.1138 53.3072 68.0979 53.5103 68.0668C58.3675 67.3481 62.1941 65.5049 64.8963 62.6154C68.1763 59.117 69.629 54.197 69.2385 48.0116L71.8626 49.1519C72.0658 49.2459 72.2684 49.277 72.4874 49.277C73.0963 49.277 73.6588 48.9177 73.9242 48.3399C74.3147 47.5748 73.9401 46.6529 73.1591 46.3094V46.3094Z" fill="#FD5533"/>
<path d="M63.2092 18.4456L63.1628 18.4139C62.4752 17.8989 61.4911 18.0234 60.9762 18.711C60.4606 19.398 60.5857 20.3821 61.2727 20.8976L61.3197 20.9287C61.6009 21.1472 61.9286 21.2411 62.2568 21.2411C62.7254 21.2411 63.1939 21.0227 63.5063 20.6164C64.0371 19.9446 63.8968 18.9605 63.2092 18.4456V18.4456Z" fill="#FD5533"/>
<path d="M47.7468 65.8954L47.7004 65.8643C47.0128 65.3488 46.0287 65.4738 45.5138 66.1614C44.9982 66.8484 45.1233 67.8326 45.8103 68.3481L45.8573 68.3792C46.1385 68.5976 46.4662 68.6916 46.7944 68.6916C47.263 68.6916 47.7315 68.4726 48.0439 68.0821C48.5747 67.3951 48.4344 66.411 47.7468 65.8954V65.8954Z" fill="#FD5533"/>
</svg>
