<svg width="506" height="448" viewBox="0 0 506 448" fill="none" xmlns="http://www.w3.org/2000/svg">
<path d="M275.278 7.28894C313.779 25.1162 308.815 78.5428 340.713 104.622C372.697 130.772 429.272 124.515 455.916 154.976C484.43 187.576 494.689 232.305 488.057 273.076C481.246 314.946 456.341 355.395 419 381.9C383.164 407.336 332.971 404.068 288.583 414.663C245.888 424.854 201.655 460.876 162.224 443.189C119.792 424.156 126.406 367.374 102.337 331.123C86.4071 307.129 60.2097 290.955 44.983 266.608C26.824 237.573 8.74446 208.408 4.95305 175.41C0.260033 134.564 -8.42103 87.1601 20.6861 55.1429C49.631 23.3042 104.481 24.6823 149.709 16.1811C191.491 8.32757 237.447 -10.2283 275.278 7.28894Z" fill="#337AB7" fill-opacity="0.13"/>
<g clip-path="url(#clip0)">
<path d="M438.143 227.648C437.635 226.821 437.315 225.892 437.205 224.927C437.095 223.962 437.198 222.985 437.506 222.064C437.815 221.143 438.322 220.301 438.991 219.598C439.66 218.894 440.475 218.346 441.379 217.991L440.44 194.406L450.941 200.746L450.222 222.171C450.717 223.729 450.624 225.414 449.959 226.908C449.294 228.402 448.104 229.6 446.615 230.275C445.127 230.95 443.442 231.055 441.88 230.571C440.318 230.087 438.989 229.047 438.143 227.648Z" fill="#A0616A"/>
<path d="M452.158 212.358L442.823 213.85C442.431 213.913 442.03 213.896 441.645 213.801C441.259 213.707 440.897 213.536 440.579 213.299C440.26 213.061 439.993 212.763 439.792 212.421C439.59 212.079 439.46 211.7 439.408 211.306L435.458 181.562L415.943 154.856C415.22 153.867 414.708 152.74 414.437 151.545C414.167 150.351 414.144 149.113 414.37 147.909C414.596 146.705 415.066 145.561 415.752 144.545C416.437 143.53 417.323 142.666 418.356 142.006L418.355 142.006C420.359 140.725 422.79 140.293 425.114 140.805C427.437 141.316 429.461 142.73 430.742 144.734L450.674 175.924L454.641 209.07C454.666 209.282 454.669 209.495 454.649 209.708C454.588 210.364 454.309 210.98 453.858 211.46C453.407 211.94 452.809 212.257 452.158 212.358Z" fill="#FA7E2B"/>
<path d="M419.975 322.756H411.877L408.024 291.521L419.976 291.522L419.975 322.756Z" fill="#A0616A"/>
<path d="M406.092 320.442H421.71V330.276H396.259C396.259 327.668 397.295 325.167 399.139 323.322C400.983 321.478 403.484 320.442 406.092 320.442Z" fill="#2F2E41"/>
<path d="M454.141 308.896L448.091 314.278L425.536 292.039L433.381 285.558L454.141 308.896Z" fill="#A0616A"/>
<path d="M442.231 316.394L453.9 306.014L460.436 313.361L441.42 330.276C440.561 329.312 439.901 328.187 439.478 326.967C439.054 325.747 438.875 324.456 438.95 323.167C439.025 321.878 439.354 320.616 439.917 319.454C440.48 318.292 441.266 317.252 442.231 316.394Z" fill="#2F2E41"/>
<path d="M338.595 144.143C339.541 143.923 340.524 143.913 341.474 144.113C342.424 144.313 343.319 144.72 344.095 145.303C344.871 145.887 345.51 146.634 345.966 147.491C346.422 148.348 346.685 149.295 346.736 150.264L369.41 156.824L360.078 164.784L339.977 157.334C338.342 157.312 336.772 156.691 335.565 155.588C334.358 154.485 333.597 152.978 333.427 151.352C333.257 149.726 333.689 148.094 334.641 146.766C335.594 145.437 337.001 144.504 338.595 144.143V144.143Z" fill="#A0616A"/>
<path d="M409.289 121.508C418.249 121.508 425.512 114.244 425.512 105.285C425.512 96.3245 418.249 89.061 409.289 89.061C400.329 89.061 393.065 96.3245 393.065 105.285C393.065 114.244 400.329 121.508 409.289 121.508Z" fill="#A0616A"/>
<path d="M420.969 316.908L409.698 316.006C408.969 315.948 408.288 315.624 407.784 315.095C407.28 314.567 406.988 313.871 406.964 313.141L403.818 218.134C403.792 217.4 404.04 216.683 404.513 216.121C404.986 215.559 405.65 215.192 406.378 215.092L428.849 211.957C429.312 211.892 429.784 211.937 430.226 212.089C430.668 212.241 431.068 212.495 431.394 212.831C431.719 213.166 431.961 213.574 432.099 214.02C432.238 214.467 432.269 214.94 432.19 215.4L423.591 265.766C423.567 265.904 423.556 266.045 423.558 266.185L424.178 313.906C424.183 314.299 424.11 314.69 423.963 315.055C423.816 315.421 423.597 315.753 423.321 316.033C423.044 316.313 422.714 316.536 422.351 316.688C421.988 316.839 421.598 316.918 421.204 316.917C421.126 316.917 421.047 316.914 420.969 316.908Z" fill="#2F2E41"/>
<path d="M435.404 305.513L396.684 262.42C396.406 262.11 396.195 261.745 396.067 261.349C395.939 260.952 395.895 260.533 395.939 260.119L400.83 214.274C400.91 213.51 401.283 212.807 401.871 212.313C402.459 211.818 403.216 211.571 403.983 211.624L427.746 213.208C428.2 213.238 428.642 213.372 429.036 213.6C429.43 213.828 429.767 214.143 430.02 214.522C430.273 214.901 430.435 215.332 430.495 215.783C430.555 216.235 430.51 216.694 430.364 217.125L416.126 259.246C415.99 259.648 415.966 260.079 416.059 260.493C416.152 260.907 416.358 261.287 416.653 261.591L449.543 295.677C449.854 296.001 450.089 296.39 450.229 296.817C450.368 297.243 450.409 297.696 450.349 298.141C450.289 298.586 450.128 299.011 449.88 299.385C449.632 299.759 449.302 300.072 448.916 300.301L439.127 306.085C438.536 306.433 437.842 306.566 437.164 306.462C436.485 306.358 435.864 306.022 435.404 305.513L435.404 305.513Z" fill="#2F2E41"/>
<path d="M406.381 131.529C406.381 131.529 416.289 122.942 420.913 127.566C420.913 127.566 442.38 141.107 433.133 178.097C433.133 178.097 441.059 213.766 437.757 215.087C434.454 216.408 401.097 221.362 398.455 217.399C395.813 213.436 394.492 152.666 406.381 131.529Z" fill="#FA7E2B"/>
<path d="M348.675 162.27L350.209 152.942C350.274 152.55 350.416 152.176 350.627 151.84C350.839 151.504 351.116 151.214 351.441 150.987C351.767 150.76 352.134 150.6 352.523 150.517C352.911 150.435 353.312 150.431 353.701 150.505L383.17 156.153L414.673 146.073C415.84 145.7 417.071 145.57 418.29 145.69C419.509 145.811 420.69 146.18 421.761 146.775C422.832 147.37 423.77 148.178 424.516 149.149C425.263 150.12 425.803 151.233 426.103 152.421L426.103 152.421C426.685 154.727 426.327 157.17 425.108 159.213C423.889 161.255 421.908 162.73 419.602 163.312L383.714 172.371L351.011 165.665C350.802 165.622 350.599 165.557 350.404 165.472C349.801 165.206 349.303 164.747 348.99 164.167C348.677 163.588 348.567 162.92 348.675 162.27Z" fill="#FA7E2B"/>
<path d="M416.25 118.444C417.733 115.013 418.988 110.443 416.144 108.017C414.495 106.61 412.119 106.607 409.958 106.432C403.869 105.939 397.602 103.138 394.626 97.8033C391.65 92.4689 393.312 84.5368 398.926 82.1301C402.711 80.5078 407.049 81.613 411.011 82.7362L422.904 86.1089C426.438 87.111 430.148 88.2162 432.693 90.8657C436.75 95.0914 436.447 102.235 433.224 107.127C430.001 112.019 425.148 117.121 419.592 118.979L416.25 118.444Z" fill="#2F2E41"/>
<path d="M505.339 331.672H341.526C341.351 331.672 341.183 331.602 341.059 331.478C340.935 331.354 340.866 331.186 340.866 331.011C340.866 330.836 340.935 330.668 341.059 330.544C341.183 330.42 341.351 330.351 341.526 330.351H505.339C505.515 330.351 505.683 330.42 505.807 330.544C505.93 330.668 506 330.836 506 331.011C506 331.186 505.93 331.354 505.807 331.478C505.683 331.602 505.515 331.672 505.339 331.672Z" fill="#3F3D56"/>
<path d="M332.305 19H10.6238C9.39788 19.0014 8.22259 19.4889 7.35577 20.3558C6.48894 21.2226 6.00136 22.3979 6 23.6238V261.417C6.00136 262.643 6.48894 263.818 7.35577 264.685C8.22259 265.552 9.39788 266.039 10.6238 266.041H332.305C333.531 266.039 334.706 265.552 335.573 264.685C336.44 263.818 336.927 262.643 336.929 261.417V23.6238C336.927 22.3979 336.44 21.2226 335.573 20.3558C334.706 19.4889 333.531 19.0014 332.305 19ZM335.608 261.417C335.607 262.293 335.259 263.133 334.64 263.752C334.021 264.371 333.181 264.719 332.305 264.72H10.6238C9.74794 264.719 8.90808 264.371 8.28879 263.752C7.66949 263.133 7.32142 262.293 7.32107 261.417V23.6238C7.32142 22.7479 7.66949 21.9081 8.28879 21.2888C8.90808 20.6695 9.74794 20.3214 10.6238 20.3211H332.305C333.181 20.3214 334.021 20.6695 334.64 21.2888C335.259 21.9081 335.607 22.7479 335.608 23.6238V261.417Z" fill="#3F3D56"/>
<path d="M336.268 37.5215H6.66052V38.8426H336.268V37.5215Z" fill="#3F3D56"/>
<path d="M17.8896 32.8713C20.0784 32.8713 21.8528 31.0969 21.8528 28.908C21.8528 26.7192 20.0784 24.9448 17.8896 24.9448C15.7008 24.9448 13.9264 26.7192 13.9264 28.908C13.9264 31.0969 15.7008 32.8713 17.8896 32.8713Z" fill="#3F3D56"/>
<path d="M29.2839 32.8713C31.4727 32.8713 33.2471 31.0969 33.2471 28.908C33.2471 26.7192 31.4727 24.9448 29.2839 24.9448C27.0951 24.9448 25.3207 26.7192 25.3207 28.908C25.3207 31.0969 27.0951 32.8713 29.2839 32.8713Z" fill="#3F3D56"/>
<path d="M40.6782 32.8713C42.867 32.8713 44.6414 31.0969 44.6414 28.908C44.6414 26.7192 42.867 24.9448 40.6782 24.9448C38.4894 24.9448 36.715 26.7192 36.715 28.908C36.715 31.0969 38.4894 32.8713 40.6782 32.8713Z" fill="#3F3D56"/>
<path d="M205.365 224.628C205.19 224.628 205.022 224.559 204.898 224.435C204.774 224.311 204.704 224.143 204.704 223.968V196.886C204.704 196.71 204.774 196.542 204.898 196.419C205.022 196.295 205.19 196.225 205.365 196.225C205.54 196.225 205.708 196.295 205.832 196.419C205.956 196.542 206.026 196.71 206.026 196.886V223.968C206.026 224.143 205.956 224.311 205.832 224.435C205.708 224.559 205.54 224.628 205.365 224.628Z" fill="#3F3D56"/>
<path d="M204.46 186.317C204.343 186.317 204.228 186.286 204.128 186.228L166.599 164.361C166.448 164.273 166.338 164.128 166.294 163.959C166.249 163.79 166.274 163.61 166.362 163.458C166.45 163.307 166.594 163.197 166.764 163.152C166.933 163.107 167.113 163.132 167.264 163.219L204.793 185.086C204.918 185.159 205.016 185.271 205.071 185.406C205.126 185.54 205.136 185.689 205.098 185.829C205.06 185.969 204.977 186.093 204.861 186.181C204.746 186.27 204.605 186.317 204.46 186.317Z" fill="#3F3D56"/>
<path d="M129.404 186.317C129.259 186.317 129.117 186.269 129.002 186.181C128.887 186.093 128.804 185.969 128.766 185.829C128.728 185.689 128.737 185.54 128.792 185.406C128.847 185.271 128.945 185.159 129.071 185.086L166.599 163.219C166.751 163.132 166.93 163.108 167.099 163.153C167.268 163.198 167.412 163.308 167.5 163.459C167.588 163.61 167.613 163.79 167.568 163.959C167.524 164.128 167.415 164.272 167.264 164.361L129.736 186.227C129.635 186.286 129.521 186.317 129.404 186.317Z" fill="#3F3D56"/>
<path d="M243.431 219.344C243.315 219.344 243.2 219.313 243.099 219.254L205.571 197.388C205.42 197.3 205.31 197.155 205.265 196.986C205.221 196.816 205.245 196.636 205.333 196.485C205.422 196.334 205.566 196.224 205.735 196.179C205.904 196.134 206.084 196.158 206.236 196.246L243.764 218.113C243.89 218.186 243.988 218.298 244.043 218.432C244.098 218.567 244.107 218.716 244.069 218.856C244.032 218.996 243.948 219.12 243.833 219.208C243.718 219.296 243.576 219.344 243.431 219.344V219.344Z" fill="#3F3D56"/>
<path d="M168.376 219.344C168.23 219.344 168.089 219.296 167.974 219.208C167.858 219.12 167.775 218.996 167.737 218.856C167.699 218.716 167.709 218.567 167.764 218.432C167.819 218.298 167.917 218.186 168.043 218.112L205.571 196.246C205.722 196.159 205.902 196.135 206.071 196.18C206.24 196.225 206.384 196.335 206.472 196.486C206.56 196.637 206.584 196.817 206.54 196.986C206.496 197.155 206.387 197.299 206.236 197.388L168.708 219.254C168.607 219.313 168.492 219.344 168.376 219.344Z" fill="#3F3D56"/>
<path d="M167.054 152.63C166.879 152.63 166.711 152.56 166.587 152.437C166.464 152.313 166.394 152.146 166.393 151.971L166.332 127.936C166.332 127.849 166.349 127.763 166.382 127.683C166.415 127.603 166.463 127.53 166.525 127.468C166.586 127.407 166.658 127.358 166.739 127.325C166.819 127.291 166.904 127.274 166.991 127.274H166.993C167.168 127.274 167.335 127.343 167.459 127.467C167.583 127.59 167.653 127.758 167.653 127.933L167.714 151.968C167.715 152.054 167.698 152.14 167.665 152.221C167.632 152.301 167.583 152.374 167.522 152.435C167.461 152.497 167.388 152.546 167.308 152.579C167.228 152.612 167.142 152.63 167.056 152.63L167.054 152.63Z" fill="#3F3D56"/>
<path d="M175.597 165.125H158.389C157.601 165.124 156.845 164.81 156.288 164.253C155.731 163.696 155.417 162.94 155.416 162.152V153.313C155.417 152.525 155.731 151.77 156.288 151.212C156.845 150.655 157.601 150.342 158.389 150.341H175.597C176.385 150.342 177.141 150.655 177.698 151.212C178.255 151.77 178.568 152.525 178.569 153.313V162.152C178.568 162.94 178.255 163.696 177.698 164.253C177.141 164.81 176.385 165.124 175.597 165.125Z" fill="#337AB7"/>
<path d="M147.116 120.195H110.5C110.325 120.195 110.157 120.125 110.033 120.001C109.909 119.877 109.839 119.709 109.839 119.534C109.839 119.359 109.909 119.191 110.033 119.067C110.157 118.943 110.325 118.874 110.5 118.874H147.116C147.291 118.874 147.459 118.943 147.583 119.067C147.707 119.191 147.776 119.359 147.776 119.534C147.776 119.709 147.707 119.877 147.583 120.001C147.459 120.125 147.291 120.195 147.116 120.195Z" fill="#3F3D56"/>
<path d="M166.993 110.76C166.818 110.76 166.65 110.691 166.526 110.567C166.402 110.443 166.332 110.275 166.332 110.1V87.2367C166.332 87.0615 166.402 86.8935 166.526 86.7696C166.65 86.6458 166.818 86.5762 166.993 86.5762C167.168 86.5762 167.336 86.6458 167.46 86.7696C167.584 86.8935 167.653 87.0615 167.653 87.2367V110.1C167.653 110.275 167.584 110.443 167.46 110.567C167.336 110.691 167.168 110.76 166.993 110.76Z" fill="#3F3D56"/>
<path d="M96.2537 120.195C96.1353 120.195 96.0192 120.163 95.9175 120.102L60.3707 99.0339C60.2205 98.9444 60.1119 98.7989 60.0687 98.6294C60.0256 98.4599 60.0515 98.2802 60.1407 98.1297C60.2298 97.9792 60.375 97.8703 60.5444 97.8267C60.7138 97.7832 60.8936 97.8086 61.0443 97.8974L96.5911 118.966C96.7157 119.04 96.8125 119.152 96.8668 119.287C96.921 119.421 96.9296 119.569 96.8912 119.709C96.8529 119.849 96.7697 119.972 96.6545 120.06C96.5393 120.147 96.3985 120.195 96.2537 120.195Z" fill="#3F3D56"/>
<path d="M60.7081 141.263C60.5633 141.263 60.4225 141.216 60.3073 141.128C60.1921 141.04 60.1089 140.917 60.0706 140.777C60.0322 140.638 60.0408 140.489 60.0951 140.355C60.1493 140.221 60.2461 140.108 60.3707 140.034L95.9175 118.966C96.0682 118.877 96.2483 118.851 96.418 118.894C96.5877 118.938 96.7333 119.047 96.8226 119.197C96.9119 119.348 96.9377 119.528 96.8943 119.698C96.8509 119.868 96.7418 120.013 96.5911 120.102L61.0443 141.171C60.9426 141.231 60.8264 141.263 60.7081 141.263Z" fill="#3F3D56"/>
<path d="M107.858 130.849H99.0187C98.2306 130.848 97.4751 130.535 96.9178 129.977C96.3606 129.42 96.0471 128.665 96.0463 127.877V110.668C96.0471 109.88 96.3606 109.125 96.9178 108.568C97.4751 108.01 98.2306 107.697 99.0187 107.696H107.858C108.646 107.697 109.401 108.01 109.958 108.568C110.516 109.125 110.829 109.88 110.83 110.668V127.877C110.829 128.665 110.516 129.42 109.958 129.977C109.401 130.535 108.646 130.848 107.858 130.849Z" fill="#337AB7"/>
<path d="M175.597 89.014H158.389C157.601 89.0131 156.845 88.6997 156.288 88.1424C155.731 87.5852 155.417 86.8296 155.416 86.0416V77.2024C155.417 76.4143 155.731 75.6588 156.288 75.1016C156.845 74.5443 157.601 74.2309 158.389 74.23H175.597C176.385 74.2309 177.141 74.5443 177.698 75.1016C178.255 75.6588 178.568 76.4143 178.569 77.2024V86.0416C178.568 86.8296 178.255 87.5852 177.698 88.1424C177.141 88.6997 176.385 89.0131 175.597 89.014Z" fill="#337AB7"/>
<path d="M58.3173 110.372H49.4784C48.6903 110.372 47.9348 110.058 47.3775 109.501C46.8203 108.944 46.5069 108.188 46.506 107.4V90.1919C46.5069 89.4038 46.8203 88.6483 47.3775 88.0911C47.9348 87.5338 48.6903 87.2204 49.4784 87.2195H58.3173C59.1054 87.2204 59.8609 87.5338 60.4182 88.0911C60.9754 88.6483 61.2889 89.4038 61.2898 90.1919V107.4C61.2889 108.188 60.9754 108.944 60.4182 109.501C59.8609 110.058 59.1054 110.372 58.3173 110.372Z" fill="#337AB7"/>
<path d="M58.3173 151.986H49.4784C48.6903 151.985 47.9348 151.672 47.3775 151.115C46.8203 150.557 46.5069 149.802 46.506 149.014V131.806C46.5069 131.018 46.8203 130.262 47.3775 129.705C47.9348 129.148 48.6903 128.834 49.4784 128.833H58.3173C59.1054 128.834 59.8609 129.148 60.4182 129.705C60.9754 130.262 61.2889 131.018 61.2898 131.806V149.014C61.2889 149.802 60.9754 150.557 60.4182 151.115C59.8609 151.672 59.1054 151.985 58.3173 151.986Z" fill="#337AB7"/>
<path d="M223.486 120.195H186.87C186.695 120.195 186.527 120.125 186.403 120.001C186.279 119.877 186.209 119.709 186.209 119.534C186.209 119.359 186.279 119.191 186.403 119.067C186.527 118.943 186.695 118.874 186.87 118.874H223.486C223.661 118.874 223.829 118.943 223.953 119.067C224.077 119.191 224.146 119.359 224.146 119.534C224.146 119.709 224.077 119.877 223.953 120.001C223.829 120.125 223.661 120.195 223.486 120.195Z" fill="#3F3D56"/>
<path d="M237.732 120.195C237.587 120.195 237.446 120.147 237.331 120.06C237.216 119.972 237.133 119.849 237.094 119.709C237.056 119.569 237.065 119.421 237.119 119.287C237.173 119.152 237.27 119.04 237.395 118.966L272.941 97.8974C273.016 97.8532 273.099 97.8241 273.184 97.8118C273.27 97.7995 273.358 97.8043 273.442 97.8258C273.526 97.8473 273.605 97.8851 273.674 97.9372C273.744 97.9892 273.802 98.0544 273.846 98.129C273.891 98.2036 273.92 98.2863 273.932 98.3721C273.944 98.458 273.94 98.5455 273.918 98.6295C273.897 98.7135 273.859 98.7925 273.807 98.8619C273.755 98.9313 273.689 98.9898 273.615 99.034L238.068 120.103C237.966 120.163 237.85 120.195 237.732 120.195Z" fill="#3F3D56"/>
<path d="M273.277 141.263C273.159 141.263 273.043 141.231 272.941 141.171L237.395 120.102C237.244 120.013 237.135 119.868 237.091 119.698C237.048 119.528 237.074 119.348 237.163 119.197C237.252 119.047 237.398 118.938 237.568 118.894C237.737 118.851 237.917 118.876 238.068 118.966L273.615 140.034C273.739 140.108 273.836 140.221 273.891 140.355C273.945 140.489 273.953 140.638 273.915 140.777C273.877 140.917 273.794 141.04 273.678 141.128C273.563 141.216 273.422 141.263 273.277 141.263V141.263Z" fill="#3F3D56"/>
<path d="M234.967 130.849H226.128C225.34 130.848 224.584 130.535 224.027 129.977C223.47 129.42 223.157 128.665 223.156 127.877V110.668C223.157 109.88 223.47 109.125 224.027 108.568C224.584 108.01 225.34 107.697 226.128 107.696H234.967C235.755 107.697 236.511 108.01 237.068 108.568C237.625 109.125 237.938 109.88 237.939 110.668V127.877C237.938 128.665 237.625 129.42 237.068 129.977C236.511 130.535 235.755 130.848 234.967 130.849Z" fill="#337AB7"/>
<path d="M284.507 110.372H275.668C274.88 110.372 274.125 110.058 273.568 109.501C273.01 108.944 272.697 108.188 272.696 107.4V90.1919C272.697 89.4038 273.01 88.6483 273.568 88.0911C274.125 87.5338 274.88 87.2204 275.668 87.2195H284.507C285.295 87.2204 286.051 87.5338 286.608 88.0911C287.165 88.6483 287.479 89.4038 287.48 90.1919V107.4C287.479 108.188 287.165 108.944 286.608 109.501C286.051 110.058 285.295 110.372 284.507 110.372Z" fill="#337AB7"/>
<path d="M284.507 151.986H275.668C274.88 151.985 274.125 151.672 273.568 151.115C273.01 150.557 272.697 149.802 272.696 149.014V131.806C272.697 131.018 273.01 130.262 273.568 129.705C274.125 129.148 274.88 128.834 275.668 128.833H284.507C285.295 128.834 286.051 129.148 286.608 129.705C287.165 130.262 287.479 131.018 287.48 131.806V149.014C287.479 149.802 287.165 150.557 286.608 151.115C286.051 151.672 285.295 151.985 284.507 151.986Z" fill="#337AB7"/>
<path d="M137.286 198.812H120.078C119.289 198.811 118.534 198.497 117.977 197.94C117.419 197.383 117.106 196.627 117.105 195.839V187C117.106 186.212 117.419 185.457 117.977 184.9C118.534 184.342 119.289 184.029 120.078 184.028H137.286C138.074 184.029 138.829 184.342 139.387 184.9C139.944 185.457 140.257 186.212 140.258 187V195.839C140.257 196.627 139.944 197.383 139.387 197.94C138.829 198.497 138.074 198.811 137.286 198.812Z" fill="#337AB7"/>
<path d="M213.786 198.812H196.578C195.79 198.811 195.034 198.497 194.477 197.94C193.92 197.383 193.606 196.627 193.605 195.839V187C193.606 186.212 193.92 185.457 194.477 184.9C195.034 184.342 195.79 184.029 196.578 184.028H213.786C214.574 184.029 215.329 184.342 215.887 184.9C216.444 185.457 216.757 186.212 216.758 187V195.839C216.757 196.627 216.444 197.383 215.887 197.94C215.329 198.497 214.574 198.811 213.786 198.812Z" fill="#337AB7"/>
<path d="M178.777 231.178H161.569C160.781 231.177 160.025 230.864 159.468 230.307C158.911 229.749 158.598 228.994 158.597 228.206V219.367C158.598 218.579 158.911 217.823 159.468 217.266C160.025 216.709 160.781 216.395 161.569 216.395H178.777C179.565 216.395 180.321 216.709 180.878 217.266C181.435 217.823 181.749 218.579 181.75 219.367V228.206C181.749 228.994 181.435 229.749 180.878 230.307C180.321 230.864 179.565 231.177 178.777 231.178Z" fill="#337AB7"/>
<path d="M252.097 231.178H234.889C234.101 231.177 233.345 230.864 232.788 230.307C232.231 229.749 231.917 228.994 231.916 228.206V219.367C231.917 218.579 232.231 217.823 232.788 217.266C233.345 216.709 234.101 216.395 234.889 216.395H252.097C252.885 216.395 253.641 216.709 254.198 217.266C254.755 217.823 255.069 218.579 255.069 219.367V228.206C255.069 228.994 254.755 229.749 254.198 230.307C253.641 230.864 252.885 231.177 252.097 231.178Z" fill="#337AB7"/>
<path d="M213.786 231.178H196.578C195.79 231.177 195.034 230.864 194.477 230.307C193.92 229.749 193.606 228.994 193.605 228.206V219.367C193.606 218.579 193.92 217.823 194.477 217.266C195.034 216.709 195.79 216.395 196.578 216.395H213.786C214.574 216.395 215.329 216.709 215.887 217.266C216.444 217.823 216.757 218.579 216.758 219.367V228.206C216.757 228.994 216.444 229.749 215.887 230.307C215.329 230.864 214.574 231.177 213.786 231.178Z" fill="#337AB7"/>
<path d="M187.912 131.025H146.074C145.286 131.024 144.531 130.71 143.973 130.153C143.416 129.596 143.103 128.84 143.102 128.052V111.016C143.103 110.228 143.416 109.472 143.973 108.915C144.531 108.358 145.286 108.044 146.074 108.043H187.912C188.7 108.044 189.455 108.358 190.012 108.915C190.57 109.472 190.883 110.228 190.884 111.016V128.052C190.883 128.84 190.57 129.596 190.012 130.153C189.455 130.711 188.7 131.024 187.912 131.025Z" fill="#FA7E2B"/>
</g>
<defs>
<clipPath id="clip0">
<rect width="500" height="312.672" fill="white" transform="translate(6 19)"/>
</clipPath>
</defs>
</svg>
