<svg width="80" height="80" viewBox="0 0 80 80" fill="none" xmlns="http://www.w3.org/2000/svg">
<path d="M25.8337 71.734V30.834H35.0003C35.2212 30.834 35.4337 30.7465 35.5895 30.5898L46.5653 19.6132C47.352 18.8273 47.7862 17.7807 47.7862 16.6673C47.7862 15.554 47.352 14.5073 46.5653 13.7215L44.7562 11.9115C44.6003 11.7548 44.3878 11.6673 44.167 11.6673C43.9462 11.6673 43.7337 11.7548 43.5778 11.9115L32.9887 22.5007H22.6353L20.2637 21.7107C20.1778 21.6815 20.0887 21.6765 20.0003 21.6765V21.6082C22.8237 21.2032 25.0003 18.7682 25.0003 15.834H26.667C26.967 15.834 27.2445 15.6732 27.392 15.4115C27.5403 15.1498 27.5362 14.829 27.3812 14.5715L25.0003 10.6032V9.06148C26.4362 8.69148 27.5003 7.38398 27.5003 5.83398V4.16732C27.5003 3.70648 27.127 3.33398 26.667 3.33398H14.167C10.9503 3.33398 8.33366 5.95148 8.33366 9.16732V15.834C8.33366 18.7682 10.5103 21.2023 13.3337 21.6082V21.6765C13.2453 21.6765 13.1562 21.6815 13.0703 21.7107L10.6987 22.5007H9.16699C5.03199 22.5007 1.66699 25.8648 1.66699 30.0007V50.834C1.66699 51.2948 2.04033 51.6673 2.50033 51.6673H7.50033V72.5006V77.5006C7.50033 77.9615 7.87366 78.334 8.33366 78.334H30.0003C30.4603 78.334 30.8337 77.9615 30.8337 77.5006C30.8337 74.5681 28.6562 72.1407 25.8337 71.734ZM44.167 13.679L45.387 14.8998C45.8595 15.3715 46.1195 15.999 46.1195 16.6673C46.1195 17.3357 45.8595 17.9632 45.387 18.4348L45.0003 18.8223L42.012 15.834L44.167 13.679ZM21.2512 23.7957L19.8345 26.1565L18.0737 24.3948L20.0645 23.3998L21.2512 23.7957ZM16.5562 30.0007H16.7778L18.2837 40.539L16.667 42.1556L15.0512 40.5398L16.5562 30.0007ZM17.0545 28.334H16.2795L15.2395 26.7731L16.667 25.3457L18.0945 26.7731L17.0545 28.334ZM10.0003 9.16732C10.0003 6.86982 11.8695 5.00065 14.167 5.00065H25.8337V5.83398C25.8337 6.75315 25.0862 7.50065 24.167 7.50065H14.167C13.707 7.50065 13.3337 7.87315 13.3337 8.33398V9.16732C13.3337 11.0057 11.8387 12.5007 10.0003 12.5007V9.16732ZM10.0003 15.834V14.1673C12.7578 14.1673 15.0003 11.9248 15.0003 9.16732H23.3337V10.834C23.3337 10.9857 23.3745 11.1332 23.4528 11.2632L25.1953 14.1673H24.167C23.707 14.1673 23.3337 14.5398 23.3337 15.0007V15.834C23.3337 18.1315 21.4645 20.0007 19.167 20.0007C18.707 20.0007 18.3337 20.3732 18.3337 20.834V22.4023L16.667 23.2357L15.0003 22.4023V20.834C15.0003 20.3732 14.627 20.0007 14.167 20.0007C11.8695 20.0007 10.0003 18.1315 10.0003 15.834ZM13.2695 23.4007L15.2603 24.3957L13.4995 26.1573L12.0828 23.7965L13.2695 23.4007ZM3.33366 30.0007C3.33366 26.7848 5.95033 24.1673 9.16699 24.1673H10.362L12.6195 27.9298C12.7512 28.1498 12.9778 28.2965 13.232 28.3282C13.487 28.3582 13.742 28.2723 13.9228 28.0907L14.0378 27.9757L14.9645 29.3648L13.342 40.7157C13.3045 40.9757 13.392 41.2373 13.5778 41.4232L16.0778 43.9232C16.2403 44.0857 16.4537 44.1673 16.667 44.1673C16.8803 44.1673 17.0937 44.0857 17.2562 43.9232L19.7562 41.4232C19.942 41.2373 20.0295 40.9757 19.992 40.7157L18.3703 29.3648L19.297 27.9757L19.412 28.0907C19.5678 28.2473 19.7803 28.334 20.0003 28.334C20.0345 28.334 20.0687 28.3315 20.102 28.3273C20.357 28.2965 20.5828 28.149 20.7145 27.929L22.972 24.1673H33.3337C33.5545 24.1673 33.767 24.0798 33.9228 23.9232L40.8337 17.0123L43.822 20.0007L34.6553 29.1673H25.0003C24.5403 29.1673 24.167 29.5398 24.167 30.0007V45.834H11.667C11.207 45.834 10.8337 46.2065 10.8337 46.6673C10.8337 47.1281 11.207 47.5006 11.667 47.5006H24.167V71.6673H17.5003V52.5006C17.5003 52.0398 17.127 51.6673 16.667 51.6673C16.207 51.6673 15.8337 52.0398 15.8337 52.5006V71.6673H9.16699V30.834C9.16699 30.3732 8.79366 30.0007 8.33366 30.0007C7.87366 30.0007 7.50033 30.3732 7.50033 30.834V45.834H3.33366V30.0007ZM3.33366 50.0006V47.5006H7.50033V50.0006H3.33366ZM16.667 76.6673H9.16699V73.334H16.667C18.6795 73.334 20.3628 74.7681 20.7495 76.6673H16.667ZM22.4337 76.6673C22.247 75.3706 21.637 74.2098 20.7412 73.334H25.0003C27.0128 73.334 28.6962 74.7681 29.0828 76.6673H22.4337Z" fill="#DE2F55"/>
<path d="M77.5003 1.66602H30.0003C29.5403 1.66602 29.167 2.03852 29.167 2.49935V19.9993C29.167 20.4602 29.5403 20.8327 30.0003 20.8327C30.4603 20.8327 30.8337 20.4602 30.8337 19.9993V3.33268H76.667V45.8327H30.8337V33.3327C30.8337 32.8719 30.4603 32.4994 30.0003 32.4994C29.5403 32.4994 29.167 32.8719 29.167 33.3327V46.666C29.167 47.1269 29.5403 47.4994 30.0003 47.4994H77.5003C77.9603 47.4994 78.3337 47.1269 78.3337 46.666V2.49935C78.3337 2.03852 77.9603 1.66602 77.5003 1.66602Z" fill="#DE2F55"/>
<path d="M74.1663 69.9993H72.4997V67.8443L73.0888 67.2552C73.2455 67.0993 73.333 66.8877 73.333 66.666V59.166C73.333 55.0302 69.968 51.666 65.833 51.666C61.7655 51.666 58.443 54.921 58.3355 58.9643L56.7538 62.1268C56.6247 62.3852 56.6388 62.6918 56.7905 62.9377C56.9422 63.1835 57.2105 63.3327 57.4997 63.3327H58.333V64.166C58.333 66.4635 60.2022 68.3327 62.4997 68.3327H65.833V69.9993H59.1663C57.7988 69.9993 56.593 70.671 55.833 71.6918C55.073 70.671 53.8672 69.9993 52.4997 69.9993H50.833V67.8443L51.4222 67.2552C51.5788 67.0993 51.6663 66.8877 51.6663 66.666V59.166C51.6663 55.0302 48.3013 51.666 44.1663 51.666C40.0988 51.666 36.7763 54.921 36.6688 58.9643L35.0872 62.1268C34.958 62.3852 34.9722 62.6918 35.1238 62.9377C35.2755 63.1835 35.5438 63.3327 35.833 63.3327H36.6663V64.166C36.6663 66.4635 38.5355 68.3327 40.833 68.3327H44.1663V69.9993H37.4997C35.2022 69.9993 33.333 71.8685 33.333 74.166V77.4993C33.333 77.9602 33.7063 78.3327 34.1663 78.3327H77.4997C77.9597 78.3327 78.333 77.9602 78.333 77.4993V74.166C78.333 71.8685 76.4638 69.9993 74.1663 69.9993V69.9993ZM62.4997 66.666C61.1213 66.666 59.9997 65.5443 59.9997 64.166V62.4993C59.9997 62.0385 59.6263 61.666 59.1663 61.666H58.848L59.9113 59.5385C59.9697 59.4235 59.9997 59.2952 59.9997 59.166C59.9997 55.9502 62.6163 53.3327 65.833 53.3327C69.0497 53.3327 71.6663 55.9502 71.6663 59.166V66.321L71.0772 66.9102C70.9205 67.066 70.833 67.2777 70.833 67.4993V69.9993H67.4997V67.4993C67.4997 67.0385 67.1263 66.666 66.6663 66.666H62.4997ZM40.833 66.666C39.4547 66.666 38.333 65.5443 38.333 64.166V62.4993C38.333 62.0385 37.9597 61.666 37.4997 61.666H37.1813L38.2447 59.5385C38.303 59.4235 38.333 59.2952 38.333 59.166C38.333 55.9502 40.9497 53.3327 44.1663 53.3327C47.383 53.3327 49.9997 55.9502 49.9997 59.166V66.321L49.4105 66.9102C49.2538 67.066 49.1663 67.2777 49.1663 67.4993V69.9993H45.833V67.4993C45.833 67.0385 45.4597 66.666 44.9997 66.666H40.833ZM34.9997 74.166C34.9997 72.7877 36.1213 71.666 37.4997 71.666H52.4997C53.878 71.666 54.9997 72.7877 54.9997 74.166V76.666H34.9997V74.166ZM76.6663 76.666H56.6663V74.166C56.6663 72.7877 57.788 71.666 59.1663 71.666H74.1663C75.5447 71.666 76.6663 72.7877 76.6663 74.166V76.666Z" fill="#DE2F55"/>
<path d="M34.1663 7.50065H40.833C41.293 7.50065 41.6663 7.12815 41.6663 6.66732C41.6663 6.20648 41.293 5.83398 40.833 5.83398H34.1663C33.7063 5.83398 33.333 6.20648 33.333 6.66732C33.333 7.12815 33.7063 7.50065 34.1663 7.50065Z" fill="#DE2F55"/>
<path d="M34.1663 10.8327H40.833C41.293 10.8327 41.6663 10.4602 41.6663 9.99935C41.6663 9.53852 41.293 9.16602 40.833 9.16602H34.1663C33.7063 9.16602 33.333 9.53852 33.333 9.99935C33.333 10.4602 33.7063 10.8327 34.1663 10.8327Z" fill="#DE2F55"/>
<path d="M73.333 5.83398H58.333C57.9555 5.83398 57.6247 6.08815 57.528 6.45232L54.9113 16.2657L53.2905 11.4032C53.1763 11.0632 52.8588 10.834 52.4997 10.834H49.1663C48.7063 10.834 48.333 11.2065 48.333 11.6673C48.333 12.1282 48.7063 12.5007 49.1663 12.5007H51.8988L54.2088 19.4307C54.3222 19.7723 54.6422 20.0007 54.9997 20.0007H55.0255C55.393 19.989 55.7105 19.7382 55.8055 19.3823L58.973 7.50065H73.333C73.793 7.50065 74.1663 7.12815 74.1663 6.66732C74.1663 6.20648 73.793 5.83398 73.333 5.83398V5.83398Z" fill="#DE2F55"/>
<path d="M73.3333 19.1667V10.8333C73.3333 10.3725 72.96 10 72.5 10H60.8333C60.3733 10 60 10.3725 60 10.8333V19.1667C60 19.6275 60.3733 20 60.8333 20H72.5C72.96 20 73.3333 19.6275 73.3333 19.1667ZM71.6667 18.3333H61.6667V11.6667H71.6667V18.3333Z" fill="#DE2F55"/>
<path d="M37.5 34.9993C37.5 39.5943 41.2383 43.3327 45.8333 43.3327C50.4283 43.3327 54.1667 39.5943 54.1667 34.9993C54.1667 30.4043 50.4283 26.666 45.8333 26.666C41.2383 26.666 37.5 30.4043 37.5 34.9993ZM39.1667 34.9993C39.1667 31.606 41.7167 28.8027 45 28.3902V34.6535L40.5733 39.0802C39.695 37.951 39.1667 36.5377 39.1667 34.9993ZM45.8333 41.666C44.295 41.666 42.8817 41.1377 41.7517 40.2593L46.1783 35.8327H52.4417C52.03 39.116 49.2267 41.666 45.8333 41.666ZM52.4425 34.166H46.6667V28.3902C49.6767 28.7685 52.0642 31.156 52.4425 34.166Z" fill="#DE2F55"/>
<path d="M59.1663 24.166H56.6663C56.2063 24.166 55.833 24.5385 55.833 24.9993C55.833 25.4602 56.2063 25.8327 56.6663 25.8327H59.1663C59.6263 25.8327 59.9997 25.4602 59.9997 24.9993C59.9997 24.5385 59.6263 24.166 59.1663 24.166Z" fill="#DE2F55"/>
<path d="M73.3333 24.166H63.3333C62.8733 24.166 62.5 24.5385 62.5 24.9993C62.5 25.4602 62.8733 25.8327 63.3333 25.8327H73.3333C73.7933 25.8327 74.1667 25.4602 74.1667 24.9993C74.1667 24.5385 73.7933 24.166 73.3333 24.166Z" fill="#DE2F55"/>
<path d="M59.1663 28.334H56.6663C56.2063 28.334 55.833 28.7065 55.833 29.1673C55.833 29.6281 56.2063 30.0006 56.6663 30.0006H59.1663C59.6263 30.0006 59.9997 29.6281 59.9997 29.1673C59.9997 28.7065 59.6263 28.334 59.1663 28.334Z" fill="#DE2F55"/>
<path d="M73.3333 28.334H63.3333C62.8733 28.334 62.5 28.7065 62.5 29.1673C62.5 29.6281 62.8733 30.0006 63.3333 30.0006H73.3333C73.7933 30.0006 74.1667 29.6281 74.1667 29.1673C74.1667 28.7065 73.7933 28.334 73.3333 28.334Z" fill="#DE2F55"/>
<path d="M59.1663 32.5H56.6663C56.2063 32.5 55.833 32.8725 55.833 33.3333C55.833 33.7942 56.2063 34.1667 56.6663 34.1667H59.1663C59.6263 34.1667 59.9997 33.7942 59.9997 33.3333C59.9997 32.8725 59.6263 32.5 59.1663 32.5Z" fill="#DE2F55"/>
<path d="M73.3333 32.5H63.3333C62.8733 32.5 62.5 32.8725 62.5 33.3333C62.5 33.7942 62.8733 34.1667 63.3333 34.1667H73.3333C73.7933 34.1667 74.1667 33.7942 74.1667 33.3333C74.1667 32.8725 73.7933 32.5 73.3333 32.5Z" fill="#DE2F55"/>
<path d="M59.1663 36.666H56.6663C56.2063 36.666 55.833 37.0385 55.833 37.4993C55.833 37.9602 56.2063 38.3327 56.6663 38.3327H59.1663C59.6263 38.3327 59.9997 37.9602 59.9997 37.4993C59.9997 37.0385 59.6263 36.666 59.1663 36.666Z" fill="#DE2F55"/>
<path d="M73.3333 36.666H63.3333C62.8733 36.666 62.5 37.0385 62.5 37.4993C62.5 37.9602 62.8733 38.3327 63.3333 38.3327H73.3333C73.7933 38.3327 74.1667 37.9602 74.1667 37.4993C74.1667 37.0385 73.7933 36.666 73.3333 36.666Z" fill="#DE2F55"/>
<path d="M59.1663 40.834H56.6663C56.2063 40.834 55.833 41.2065 55.833 41.6673C55.833 42.1282 56.2063 42.5007 56.6663 42.5007H59.1663C59.6263 42.5007 59.9997 42.1282 59.9997 41.6673C59.9997 41.2065 59.6263 40.834 59.1663 40.834Z" fill="#DE2F55"/>
<path d="M73.3333 42.5007C73.7936 42.5007 74.1667 42.1276 74.1667 41.6673C74.1667 41.2071 73.7936 40.834 73.3333 40.834C72.8731 40.834 72.5 41.2071 72.5 41.6673C72.5 42.1276 72.8731 42.5007 73.3333 42.5007Z" fill="#DE2F55"/>
<path d="M70.0003 42.5007C70.4606 42.5007 70.8337 42.1276 70.8337 41.6673C70.8337 41.2071 70.4606 40.834 70.0003 40.834C69.5401 40.834 69.167 41.2071 69.167 41.6673C69.167 42.1276 69.5401 42.5007 70.0003 42.5007Z" fill="#DE2F55"/>
<path d="M66.6663 42.5007C67.1266 42.5007 67.4997 42.1276 67.4997 41.6673C67.4997 41.2071 67.1266 40.834 66.6663 40.834C66.2061 40.834 65.833 41.2071 65.833 41.6673C65.833 42.1276 66.2061 42.5007 66.6663 42.5007Z" fill="#DE2F55"/>
<path d="M63.3333 42.5007C63.7936 42.5007 64.1667 42.1276 64.1667 41.6673C64.1667 41.2071 63.7936 40.834 63.3333 40.834C62.8731 40.834 62.5 41.2071 62.5 41.6673C62.5 42.1276 62.8731 42.5007 63.3333 42.5007Z" fill="#DE2F55"/>
</svg>
