<svg id="Layer_1" enable-background="new 0 0 510 510" height="512" viewBox="0 0 510 510" width="512" xmlns="http://www.w3.org/2000/svg"><g><g><path d="m255 0c-98.131 0-158.58 55.352-158.747 55.445 0 0-2.513 3.137-2.983 5.222-3.818 16.948-7.385 39.663-7.385 56.238 0 140.833 118.763 254.972 259.596 254.972 54.231 0 114.568-25.992 154.949-57.243.903-.699 3.769-5.396 3.769-5.396.178-1.087 5.8-23.477 5.8-54.239.001-140.832-114.166-254.999-254.999-254.999z" fill="#afe6ff"/><path d="m345.459 364.679c-140.833 0-255-114.167-255-255 0-18.615 2.007-36.753 5.795-54.234-58.645 46.72-96.254 118.747-96.254 199.555 0 14.191 1.159 28.111 3.388 41.671l366.959 185.776c67.034-34.055 117.332-96.951 133.852-173.208-43.559 34.695-98.724 55.44-158.74 55.44z" fill="#9dc6fb"/></g><g><g><path d="m393.702 192.79-19.782-6.939.992-14.722c-32.86-33.222-76.317-55.942-124.884-62.675l-60.441-.003c-38.894 5.387-74.512 21.027-104.036 44.104-16.603 12.977-25.245 38.125-27.665 68.297-8.025 100.053 58.071 191.112 155.207 216.401l20.261 5.275c74.071 19.284 152.485-7.717 198.98-68.516 2.632-11.355 4.378-23.05 5.16-35.008l-11.903-16.461 11.995-10.966c-2.608-44.491-18.549-85.399-43.884-118.787z" fill="#528ecb"/><path d="m432.332 374.011c-37.018 28.935-83.614 46.183-134.24 46.183-120.493 0-218.171-97.679-218.171-218.171 0-17.013 1.95-33.57 5.634-49.463-7.348 5.744-14.319 11.948-20.869 18.569l-1.078 17.315-17.715 4.347c-22.481 29.623-37.565 65.166-42.504 103.88.825 5.019 1.797 9.99 2.91 14.906l8.397 15.082-.536 12.343c14.106 40.447 38.113 76.253 69.118 104.512l76.621 48.162c14.694 5.91 30.065 10.491 45.965 13.595l13.606-5.01 14.037 8.847c6.392.533 12.852.831 19.369.884l52.267-4.937c22.959-4.589 44.853-12.27 65.204-22.609 1.185-1.13 2.358-2.274 3.518-3.43l-4.473-16.078 23.474-5.54c18.657-24.272 32.324-52.579 39.466-83.387z" fill="#4a80aa"/></g><path d="m437.571 311.576h-70.317c-1.398-36.492-8.682-71.348-21.156-101.986 11.66-3.076 22.681-6.595 32.905-10.542 5.158-1.992 10.046-4.081 14.688-6.25-5.789-7.629-12.065-14.865-18.788-21.661-1.882.788-3.805 1.566-5.779 2.328-10.751 4.151-22.49 7.792-35.01 10.901-2.584-4.702-5.299-9.272-8.16-13.682-20.835-32.107-47.107-53.44-75.93-62.213-9.882-1.37-19.971-2.095-30.231-2.095-10.251 0-20.332.719-30.206 2.087-28.833 8.768-55.114 30.105-75.954 62.221-2.861 4.41-5.577 8.98-8.16 13.682-8.05-2-16.187-4.331-24.165-7.009l-10.481 10.484 9.144 17.881c4.507 1.389 9.024 2.683 13.52 3.869-3.958 9.719-7.392 19.864-10.282 30.35l2.569 39.82c.517 8.019 6.835 14.447 14.844 15.104 2.763-28.509 9.484-55.44 19.778-79.185 26.582 5.091 55.594 8.094 85.683 8.796v87.101h-96.69l1.646 15.494 17.254 11.931h77.789v60.881l16.452 14.234 10.973-3.644v-71.471h106.574c-1.312 28.241-6.474 55.234-15.071 79.534l17.62 1.045 12.774-7.009c6.677-23.097 10.695-47.917 11.792-73.571h70.28c.313-4.779.49-9.596.49-14.454 0-4.356-.143-8.678-.395-12.971zm-231.489-114.531c-25.377-.616-49.853-2.936-72.517-6.823.868-1.419 1.746-2.827 2.645-4.212 19.383-29.87 43.802-48.295 69.872-53.097zm27.425-64.132c26.07 4.802 50.489 23.227 69.872 53.097.899 1.385 1.777 2.793 2.645 4.212-22.664 3.887-47.14 6.207-72.517 6.823zm0 178.663v-87.101c30.089-.702 59.101-3.705 85.683-8.796 12.286 28.341 19.505 61.209 20.949 95.897z" fill="#fff"/><g fill="#cbe2ff"><path d="m252.876 509.991c.707.006 1.415.009 2.124.009 17.135 0 33.906-1.7 50.143-4.946 10.998-11.626 20.429-24.994 28.258-39.021 13.638 3.357 27.476 7.619 40.458 12.977 7.186-7.167 13.113-14.006 18.995-21.621-14.986-6.924-31.206-12.327-47.299-16.546 3.752-9.067 7.034-18.518 9.852-28.27-9.869 2.681-20.015 4.689-30.388 5.966-1.967 5.562-4.114 10.983-6.437 16.244-26.417-5.02-55.215-7.985-85.075-8.681v-15.63c-9.434-2.92-18.587-6.473-27.425-10.59v26.22c-29.86.696-58.659 3.66-85.075 8.681-12.474-28.249-19.887-61.078-21.498-95.782h28.784c-6.967-8.626-13.294-17.789-18.9-27.425h-9.943c.234-5.624.636-11.195 1.171-16.712-8.1-17.199-14.026-35.622-17.408-54.923-6.221 22.568-9.923 46.719-10.878 71.635h-66.036c2.117 9.347 4.748 18.499 7.861 27.425h58.234c1.56 36.483 9.002 71.297 21.64 101.842-3.493.916-6.992 1.888-10.483 2.918 22.223 20.197 48.028 36.523 76.349 47.914-9.818-9.112-18.348-19.972-25.507-31.461 22.431-3.802 46.621-6.072 71.69-6.681v51.779c8.982 1.745 18.133 3.019 27.425 3.794v-55.574c25.068.609 49.258 2.879 71.69 6.681-13.045 20.933-30.66 39.796-52.322 49.778z"/><path d="m64.7 171.143c-6.944 7.034-12.55 13.432-18.793 21.66 11.105 5.19 22.437 9.352 34.061 12.928-.154-9.24.213-18.368 1.339-28.372-6.506-2.183-11.664-4.146-16.607-6.216z"/></g></g><path d="m487.845 134.712c0-74.155-60.115-134.27-134.27-134.27s-134.27 60.114-134.27 134.27c0 56.281 34.632 104.465 83.743 124.428l50.526 72.054 50.526-72.054c49.113-19.963 83.745-68.147 83.745-124.428z" fill="#fa735f"/><path d="m416.592 196.188c-73.727 0-133.495-59.768-133.495-133.495 0-16.601 3.039-32.49 8.577-47.152-42.999 22.381-72.367 67.344-72.367 119.171 0 56.281 34.632 104.465 83.743 124.428l50.526 72.054 50.526-72.054c35.167-14.295 62.906-43.061 75.826-78.907-18.847 10.176-40.416 15.955-63.336 15.955z" fill="#fa503c"/><circle cx="354.842" cy="151.914" fill="#fa503c" r="58.674"/><circle cx="354.842" cy="132.913" fill="#fff" r="58.674"/><path d="m296.168 132.913c0 32.405 26.269 58.674 58.674 58.674v-117.348c-32.405 0-58.674 26.27-58.674 58.674z" fill="#f4fbff"/></g></svg>