<svg xmlns="http://www.w3.org/2000/svg" height="512pt" version="1.1" viewBox="0 -23 512.00021 512" width="512pt">
<g id="surface1">
<path d="M 179.460938 247.085938 L 145.285156 247.085938 C 143.5625 247.085938 142.164062 248.480469 142.164062 250.207031 L 142.164062 386.753906 L 182.582031 386.753906 L 182.582031 250.207031 C 182.582031 248.480469 181.183594 247.085938 179.460938 247.085938 Z M 179.460938 247.085938 " style=" stroke:none;fill-rule:nonzero;fill:rgb(93.333333%,33.72549%,27.45098%);fill-opacity:1;" />
<path d="M 263.523438 190.984375 L 229.347656 190.984375 C 227.625 190.984375 226.226562 192.382812 226.226562 194.105469 L 226.226562 386.753906 L 266.644531 386.753906 L 266.644531 194.105469 C 266.644531 192.382812 265.246094 190.984375 263.523438 190.984375 Z M 263.523438 190.984375 " style=" stroke:none;fill-rule:nonzero;fill:rgb(96.078431%,70.980392%,33.72549%);fill-opacity:1;" />
<path d="M 347.585938 141.734375 L 313.410156 141.734375 C 311.6875 141.734375 310.289062 143.132812 310.289062 144.855469 L 310.289062 386.753906 L 350.707031 386.753906 L 350.707031 144.855469 C 350.707031 143.132812 349.308594 141.734375 347.585938 141.734375 Z M 347.585938 141.734375 " style=" stroke:none;fill-rule:nonzero;fill:rgb(59.215686%,70.588235%,98.823529%);fill-opacity:1;" />
<path d="M 431.648438 100.308594 L 397.472656 100.308594 C 395.75 100.308594 394.351562 101.703125 394.351562 103.429688 L 394.351562 386.753906 L 434.769531 386.753906 L 434.769531 103.425781 C 434.769531 101.703125 433.371094 100.308594 431.648438 100.308594 Z M 431.648438 100.308594 " style=" stroke:none;fill-rule:nonzero;fill:rgb(32.941176%,85.490196%,76.862745%);fill-opacity:1;" />
<path d="M 419.773438 41.730469 L 416.683594 7.785156 C 416.695312 5.210938 415.429688 2.6875 413.09375 1.207031 C 412.734375 0.980469 412.363281 0.796875 411.984375 0.636719 C 411.949219 0.621094 411.914062 0.605469 411.878906 0.589844 C 411.71875 0.523438 411.558594 0.46875 411.398438 0.414062 C 411.292969 0.378906 411.191406 0.34375 411.085938 0.3125 C 410.988281 0.285156 410.894531 0.261719 410.796875 0.238281 C 410.621094 0.191406 410.441406 0.152344 410.257812 0.121094 C 410.238281 0.117188 410.214844 0.113281 410.191406 0.109375 C 409.542969 0.00390625 408.882812 -0.03125 408.21875 0.03125 L 373.511719 3.191406 C 369.261719 3.578125 366.132812 7.335938 366.519531 11.585938 C 366.902344 15.835938 370.652344 18.964844 374.914062 18.582031 L 391.644531 17.058594 C 382.546875 27.292969 367.03125 42.890625 342.601562 62.246094 C 267.574219 121.691406 167.851562 170.0625 97.40625 200.171875 C 93.480469 201.847656 91.660156 206.386719 93.335938 210.3125 C 94.589844 213.246094 97.445312 215.003906 100.445312 215.003906 C 101.457031 215.003906 102.488281 214.804688 103.476562 214.378906 C 175.273438 183.695312 276.902344 134.332031 353.363281 73.429688 C 377.691406 54.058594 393.414062 38.335938 402.96875 27.617188 L 404.382812 43.132812 C 404.746094 47.144531 408.117188 50.15625 412.066406 50.15625 C 412.300781 50.15625 412.539062 50.148438 412.777344 50.125 C 417.027344 49.738281 420.15625 45.980469 419.773438 41.730469 Z M 419.773438 41.730469 " style=" stroke:none;fill-rule:nonzero;fill:rgb(52.941176%,85.882353%,99.215686%);fill-opacity:1;" />
<path d="M 475.707031 310.398438 L 377.148438 376.359375 L 347.773438 374.710938 L 346.625 363.148438 C 344.914062 345.941406 331.664062 332.128906 314.539062 329.707031 L 235.839844 320.644531 C 217.683594 318.074219 200.203125 311.992188 184.378906 302.734375 C 162.769531 290.09375 138.1875 283.429688 113.15625 283.429688 L 56.414062 283.429688 L 56.414062 407.042969 L 206.378906 463.832031 C 212.046875 465.433594 217.996094 465.914062 223.816406 464.992188 C 223.851562 464.988281 223.886719 464.980469 223.917969 464.976562 L 374.898438 443.214844 C 386.527344 441.355469 397.464844 436.457031 406.589844 429.011719 L 504.171875 347.15625 C 512.929688 339.378906 514.550781 326.3125 507.964844 316.628906 C 500.753906 306.035156 486.34375 303.253906 475.707031 310.398438 Z M 475.707031 310.398438 " style=" stroke:none;fill-rule:nonzero;fill:rgb(100%,90.588235%,81.176471%);fill-opacity:1;" />
<path d="M 506.140625 314.316406 C 473.824219 338.097656 394.355469 396.039062 385.117188 397.515625 L 223.917969 411.5625 C 223.882812 411.566406 223.847656 411.574219 223.816406 411.578125 C 217.996094 412.5 212.046875 412.019531 206.378906 410.417969 L 56.414062 353.628906 L 56.414062 407.042969 L 206.378906 463.832031 C 212.046875 465.433594 217.996094 465.914062 223.816406 464.992188 C 223.851562 464.988281 223.886719 464.980469 223.917969 464.976562 L 374.898438 443.214844 C 386.527344 441.355469 397.464844 436.457031 406.589844 429.011719 L 504.171875 347.15625 C 512.929688 339.378906 514.550781 326.3125 507.964844 316.628906 C 507.402344 315.804688 506.785156 315.046875 506.140625 314.316406 Z M 506.140625 314.316406 " style=" stroke:none;fill-rule:nonzero;fill:rgb(93.72549%,83.529412%,74.117647%);fill-opacity:1;" />
<path d="M 347.773438 374.710938 L 347.011719 367.015625 L 200.441406 376.0625 C 200.355469 376.058594 200.273438 376.054688 200.199219 376.046875 C 195.777344 375.648438 191.78125 373.554688 188.945312 370.15625 C 186.214844 366.878906 181.339844 366.4375 178.0625 369.171875 C 174.789062 371.90625 174.347656 376.777344 177.078125 380.054688 C 182.558594 386.621094 190.273438 390.664062 198.820312 391.4375 C 199.179688 391.46875 199.539062 391.492188 199.835938 391.503906 C 200.066406 391.515625 200.296875 391.519531 200.527344 391.519531 C 200.617188 391.519531 200.792969 391.519531 200.882812 391.515625 C 200.953125 391.511719 201.019531 391.511719 201.089844 391.503906 Z M 347.773438 374.710938 " style=" stroke:none;fill-rule:nonzero;fill:rgb(93.72549%,83.529412%,74.117647%);fill-opacity:1;" />
<path d="M 82.445312 428.03125 L 82.445312 272.191406 C 82.445312 267.523438 78.660156 263.738281 73.992188 263.738281 L 1.894531 263.738281 C 0.847656 263.738281 0 264.585938 0 265.632812 L 0 434.585938 C 0 435.632812 0.847656 436.480469 1.894531 436.480469 L 73.992188 436.480469 C 78.664062 436.480469 82.445312 432.699219 82.445312 428.03125 Z M 82.445312 428.03125 " style=" stroke:none;fill-rule:nonzero;fill:rgb(23.529412%,33.72549%,40%);fill-opacity:1;" />
<path d="M 0 434.585938 C 0 435.632812 0.847656 436.484375 1.894531 436.484375 L 73.992188 436.484375 C 78.664062 436.484375 82.449219 432.699219 82.449219 428.03125 L 82.449219 383.066406 L 0 383.066406 Z M 0 434.585938 " style=" stroke:none;fill-rule:nonzero;fill:rgb(16.470588%,24.705882%,30.980392%);fill-opacity:1;" />
<path d="M 52.023438 408.847656 L 29.359375 408.847656 C 25.09375 408.847656 21.632812 405.386719 21.632812 401.121094 C 21.632812 396.851562 25.09375 393.394531 29.359375 393.394531 L 52.023438 393.394531 C 56.289062 393.394531 59.75 396.851562 59.75 401.121094 C 59.75 405.386719 56.289062 408.847656 52.023438 408.847656 Z M 52.023438 408.847656 " style=" stroke:none;fill-rule:nonzero;fill:rgb(32.156863%,43.921569%,49.803922%);fill-opacity:1;" />
</g>
</svg>